<?xml version="1.0" encoding="utf-8" standalone="no"?>
<!DOCTYPE svg PUBLIC "-//W3C//DTD SVG 1.1//EN"
  "http://www.w3.org/Graphics/SVG/1.1/DTD/svg11.dtd">
<svg xmlns:xlink="http://www.w3.org/1999/xlink" width="432pt" height="648pt" viewBox="0 0 432 648" xmlns="http://www.w3.org/2000/svg" version="1.1">
 <metadata>
  <rdf:RDF xmlns:dc="http://purl.org/dc/elements/1.1/" xmlns:cc="http://creativecommons.org/ns#" xmlns:rdf="http://www.w3.org/1999/02/22-rdf-syntax-ns#">
   <cc:Work>
    <dc:type rdf:resource="http://purl.org/dc/dcmitype/StillImage"/>
    <dc:date>2023-12-13T23:26:42.234770</dc:date>
    <dc:format>image/svg+xml</dc:format>
    <dc:creator>
     <cc:Agent>
      <dc:title>Matplotlib v3.7.0, https://matplotlib.org/</dc:title>
     </cc:Agent>
    </dc:creator>
   </cc:Work>
  </rdf:RDF>
 </metadata>
 <defs>
  <style type="text/css">*{stroke-linejoin: round; stroke-linecap: butt}</style>
 </defs>
 <g id="figure_1">
  <g id="patch_1">
   <path d="M 0 648 
L 432 648 
L 432 0 
L 0 0 
z
" style="fill: #ffffff"/>
  </g>
  <g id="axes_1">
   <g id="patch_2">
    <path d="M 48.806875 287.44 
L 421.2 287.44 
L 421.2 10.8 
L 48.806875 10.8 
z
" style="fill: #ffffff"/>
   </g>
   <g id="matplotlib.axis_1">
    <g id="xtick_1">
     <g id="line2d_1">
      <path d="M 65.733835 287.44 
L 65.733835 10.8 
" clip-path="url(#p7a6d7e9a25)" style="fill: none; stroke: #b0b0b0; stroke-width: 0.8; stroke-linecap: square"/>
     </g>
     <g id="line2d_2">
      <defs>
       <path id="m89fc939ff5" d="M 0 0 
L 0 3.5 
" style="stroke: #000000; stroke-width: 0.8"/>
      </defs>
      <g>
       <use xlink:href="#m89fc939ff5" x="65.733835" y="287.44" style="stroke: #000000; stroke-width: 0.8"/>
      </g>
     </g>
     <g id="text_1">
      <!-- 0.0 -->
      <g transform="translate(57.782273 302.038438) scale(0.1 -0.1)">
       <defs>
        <path id="DejaVuSans-30" d="M 2034 4250 
Q 1547 4250 1301 3770 
Q 1056 3291 1056 2328 
Q 1056 1369 1301 889 
Q 1547 409 2034 409 
Q 2525 409 2770 889 
Q 3016 1369 3016 2328 
Q 3016 3291 2770 3770 
Q 2525 4250 2034 4250 
z
M 2034 4750 
Q 2819 4750 3233 4129 
Q 3647 3509 3647 2328 
Q 3647 1150 3233 529 
Q 2819 -91 2034 -91 
Q 1250 -91 836 529 
Q 422 1150 422 2328 
Q 422 3509 836 4129 
Q 1250 4750 2034 4750 
z
" transform="scale(0.015625)"/>
        <path id="DejaVuSans-2e" d="M 684 794 
L 1344 794 
L 1344 0 
L 684 0 
L 684 794 
z
" transform="scale(0.015625)"/>
       </defs>
       <use xlink:href="#DejaVuSans-30"/>
       <use xlink:href="#DejaVuSans-2e" x="63.623047"/>
       <use xlink:href="#DejaVuSans-30" x="95.410156"/>
      </g>
     </g>
    </g>
    <g id="xtick_2">
     <g id="line2d_3">
      <path d="M 108.051236 287.44 
L 108.051236 10.8 
" clip-path="url(#p7a6d7e9a25)" style="fill: none; stroke: #b0b0b0; stroke-width: 0.8; stroke-linecap: square"/>
     </g>
     <g id="line2d_4">
      <g>
       <use xlink:href="#m89fc939ff5" x="108.051236" y="287.44" style="stroke: #000000; stroke-width: 0.8"/>
      </g>
     </g>
     <g id="text_2">
      <!-- 0.5 -->
      <g transform="translate(100.099673 302.038438) scale(0.1 -0.1)">
       <defs>
        <path id="DejaVuSans-35" d="M 691 4666 
L 3169 4666 
L 3169 4134 
L 1269 4134 
L 1269 2991 
Q 1406 3038 1543 3061 
Q 1681 3084 1819 3084 
Q 2600 3084 3056 2656 
Q 3513 2228 3513 1497 
Q 3513 744 3044 326 
Q 2575 -91 1722 -91 
Q 1428 -91 1123 -41 
Q 819 9 494 109 
L 494 744 
Q 775 591 1075 516 
Q 1375 441 1709 441 
Q 2250 441 2565 725 
Q 2881 1009 2881 1497 
Q 2881 1984 2565 2268 
Q 2250 2553 1709 2553 
Q 1456 2553 1204 2497 
Q 953 2441 691 2322 
L 691 4666 
z
" transform="scale(0.015625)"/>
       </defs>
       <use xlink:href="#DejaVuSans-30"/>
       <use xlink:href="#DejaVuSans-2e" x="63.623047"/>
       <use xlink:href="#DejaVuSans-35" x="95.410156"/>
      </g>
     </g>
    </g>
    <g id="xtick_3">
     <g id="line2d_5">
      <path d="M 150.368636 287.44 
L 150.368636 10.8 
" clip-path="url(#p7a6d7e9a25)" style="fill: none; stroke: #b0b0b0; stroke-width: 0.8; stroke-linecap: square"/>
     </g>
     <g id="line2d_6">
      <g>
       <use xlink:href="#m89fc939ff5" x="150.368636" y="287.44" style="stroke: #000000; stroke-width: 0.8"/>
      </g>
     </g>
     <g id="text_3">
      <!-- 1.0 -->
      <g transform="translate(142.417074 302.038438) scale(0.1 -0.1)">
       <defs>
        <path id="DejaVuSans-31" d="M 794 531 
L 1825 531 
L 1825 4091 
L 703 3866 
L 703 4441 
L 1819 4666 
L 2450 4666 
L 2450 531 
L 3481 531 
L 3481 0 
L 794 0 
L 794 531 
z
" transform="scale(0.015625)"/>
       </defs>
       <use xlink:href="#DejaVuSans-31"/>
       <use xlink:href="#DejaVuSans-2e" x="63.623047"/>
       <use xlink:href="#DejaVuSans-30" x="95.410156"/>
      </g>
     </g>
    </g>
    <g id="xtick_4">
     <g id="line2d_7">
      <path d="M 192.686037 287.44 
L 192.686037 10.8 
" clip-path="url(#p7a6d7e9a25)" style="fill: none; stroke: #b0b0b0; stroke-width: 0.8; stroke-linecap: square"/>
     </g>
     <g id="line2d_8">
      <g>
       <use xlink:href="#m89fc939ff5" x="192.686037" y="287.44" style="stroke: #000000; stroke-width: 0.8"/>
      </g>
     </g>
     <g id="text_4">
      <!-- 1.5 -->
      <g transform="translate(184.734474 302.038438) scale(0.1 -0.1)">
       <use xlink:href="#DejaVuSans-31"/>
       <use xlink:href="#DejaVuSans-2e" x="63.623047"/>
       <use xlink:href="#DejaVuSans-35" x="95.410156"/>
      </g>
     </g>
    </g>
    <g id="xtick_5">
     <g id="line2d_9">
      <path d="M 235.003438 287.44 
L 235.003438 10.8 
" clip-path="url(#p7a6d7e9a25)" style="fill: none; stroke: #b0b0b0; stroke-width: 0.8; stroke-linecap: square"/>
     </g>
     <g id="line2d_10">
      <g>
       <use xlink:href="#m89fc939ff5" x="235.003438" y="287.44" style="stroke: #000000; stroke-width: 0.8"/>
      </g>
     </g>
     <g id="text_5">
      <!-- 2.0 -->
      <g transform="translate(227.051875 302.038438) scale(0.1 -0.1)">
       <defs>
        <path id="DejaVuSans-32" d="M 1228 531 
L 3431 531 
L 3431 0 
L 469 0 
L 469 531 
Q 828 903 1448 1529 
Q 2069 2156 2228 2338 
Q 2531 2678 2651 2914 
Q 2772 3150 2772 3378 
Q 2772 3750 2511 3984 
Q 2250 4219 1831 4219 
Q 1534 4219 1204 4116 
Q 875 4013 500 3803 
L 500 4441 
Q 881 4594 1212 4672 
Q 1544 4750 1819 4750 
Q 2544 4750 2975 4387 
Q 3406 4025 3406 3419 
Q 3406 3131 3298 2873 
Q 3191 2616 2906 2266 
Q 2828 2175 2409 1742 
Q 1991 1309 1228 531 
z
" transform="scale(0.015625)"/>
       </defs>
       <use xlink:href="#DejaVuSans-32"/>
       <use xlink:href="#DejaVuSans-2e" x="63.623047"/>
       <use xlink:href="#DejaVuSans-30" x="95.410156"/>
      </g>
     </g>
    </g>
    <g id="xtick_6">
     <g id="line2d_11">
      <path d="M 277.320838 287.44 
L 277.320838 10.8 
" clip-path="url(#p7a6d7e9a25)" style="fill: none; stroke: #b0b0b0; stroke-width: 0.8; stroke-linecap: square"/>
     </g>
     <g id="line2d_12">
      <g>
       <use xlink:href="#m89fc939ff5" x="277.320838" y="287.44" style="stroke: #000000; stroke-width: 0.8"/>
      </g>
     </g>
     <g id="text_6">
      <!-- 2.5 -->
      <g transform="translate(269.369276 302.038438) scale(0.1 -0.1)">
       <use xlink:href="#DejaVuSans-32"/>
       <use xlink:href="#DejaVuSans-2e" x="63.623047"/>
       <use xlink:href="#DejaVuSans-35" x="95.410156"/>
      </g>
     </g>
    </g>
    <g id="xtick_7">
     <g id="line2d_13">
      <path d="M 319.638239 287.44 
L 319.638239 10.8 
" clip-path="url(#p7a6d7e9a25)" style="fill: none; stroke: #b0b0b0; stroke-width: 0.8; stroke-linecap: square"/>
     </g>
     <g id="line2d_14">
      <g>
       <use xlink:href="#m89fc939ff5" x="319.638239" y="287.44" style="stroke: #000000; stroke-width: 0.8"/>
      </g>
     </g>
     <g id="text_7">
      <!-- 3.0 -->
      <g transform="translate(311.686676 302.038438) scale(0.1 -0.1)">
       <defs>
        <path id="DejaVuSans-33" d="M 2597 2516 
Q 3050 2419 3304 2112 
Q 3559 1806 3559 1356 
Q 3559 666 3084 287 
Q 2609 -91 1734 -91 
Q 1441 -91 1130 -33 
Q 819 25 488 141 
L 488 750 
Q 750 597 1062 519 
Q 1375 441 1716 441 
Q 2309 441 2620 675 
Q 2931 909 2931 1356 
Q 2931 1769 2642 2001 
Q 2353 2234 1838 2234 
L 1294 2234 
L 1294 2753 
L 1863 2753 
Q 2328 2753 2575 2939 
Q 2822 3125 2822 3475 
Q 2822 3834 2567 4026 
Q 2313 4219 1838 4219 
Q 1578 4219 1281 4162 
Q 984 4106 628 3988 
L 628 4550 
Q 988 4650 1302 4700 
Q 1616 4750 1894 4750 
Q 2613 4750 3031 4423 
Q 3450 4097 3450 3541 
Q 3450 3153 3228 2886 
Q 3006 2619 2597 2516 
z
" transform="scale(0.015625)"/>
       </defs>
       <use xlink:href="#DejaVuSans-33"/>
       <use xlink:href="#DejaVuSans-2e" x="63.623047"/>
       <use xlink:href="#DejaVuSans-30" x="95.410156"/>
      </g>
     </g>
    </g>
    <g id="xtick_8">
     <g id="line2d_15">
      <path d="M 361.955639 287.44 
L 361.955639 10.8 
" clip-path="url(#p7a6d7e9a25)" style="fill: none; stroke: #b0b0b0; stroke-width: 0.8; stroke-linecap: square"/>
     </g>
     <g id="line2d_16">
      <g>
       <use xlink:href="#m89fc939ff5" x="361.955639" y="287.44" style="stroke: #000000; stroke-width: 0.8"/>
      </g>
     </g>
     <g id="text_8">
      <!-- 3.5 -->
      <g transform="translate(354.004077 302.038438) scale(0.1 -0.1)">
       <use xlink:href="#DejaVuSans-33"/>
       <use xlink:href="#DejaVuSans-2e" x="63.623047"/>
       <use xlink:href="#DejaVuSans-35" x="95.410156"/>
      </g>
     </g>
    </g>
    <g id="xtick_9">
     <g id="line2d_17">
      <path d="M 404.27304 287.44 
L 404.27304 10.8 
" clip-path="url(#p7a6d7e9a25)" style="fill: none; stroke: #b0b0b0; stroke-width: 0.8; stroke-linecap: square"/>
     </g>
     <g id="line2d_18">
      <g>
       <use xlink:href="#m89fc939ff5" x="404.27304" y="287.44" style="stroke: #000000; stroke-width: 0.8"/>
      </g>
     </g>
     <g id="text_9">
      <!-- 4.0 -->
      <g transform="translate(396.321477 302.038438) scale(0.1 -0.1)">
       <defs>
        <path id="DejaVuSans-34" d="M 2419 4116 
L 825 1625 
L 2419 1625 
L 2419 4116 
z
M 2253 4666 
L 3047 4666 
L 3047 1625 
L 3713 1625 
L 3713 1100 
L 3047 1100 
L 3047 0 
L 2419 0 
L 2419 1100 
L 313 1100 
L 313 1709 
L 2253 4666 
z
" transform="scale(0.015625)"/>
       </defs>
       <use xlink:href="#DejaVuSans-34"/>
       <use xlink:href="#DejaVuSans-2e" x="63.623047"/>
       <use xlink:href="#DejaVuSans-30" x="95.410156"/>
      </g>
     </g>
    </g>
    <g id="text_10">
     <!-- $\kappa h\,/\,$$\pi$ -->
     <g transform="translate(222.553438 315.716563) scale(0.1 -0.1)">
      <defs>
       <path id="DejaVuSans-Oblique-3ba" d="M 938 3500 
L 1531 3500 
L 1247 2047 
L 3041 3500 
L 3741 3500 
L 2106 2181 
L 3275 0 
L 2572 0 
L 1628 1806 
L 1122 1403 
L 850 0 
L 256 0 
L 938 3500 
z
" transform="scale(0.015625)"/>
       <path id="DejaVuSans-Oblique-68" d="M 3566 2113 
L 3156 0 
L 2578 0 
L 2988 2091 
Q 3016 2238 3031 2350 
Q 3047 2463 3047 2528 
Q 3047 2791 2881 2937 
Q 2716 3084 2419 3084 
Q 1956 3084 1617 2771 
Q 1278 2459 1178 1941 
L 800 0 
L 225 0 
L 1172 4863 
L 1747 4863 
L 1375 2950 
Q 1594 3244 1934 3414 
Q 2275 3584 2650 3584 
Q 3113 3584 3367 3334 
Q 3622 3084 3622 2631 
Q 3622 2519 3608 2391 
Q 3594 2263 3566 2113 
z
" transform="scale(0.015625)"/>
       <path id="DejaVuSans-2f" d="M 1625 4666 
L 2156 4666 
L 531 -594 
L 0 -594 
L 1625 4666 
z
" transform="scale(0.015625)"/>
       <path id="DejaVuSans-Oblique-3c0" d="M 584 3500 
L 3938 3500 
L 3825 2925 
L 3384 2925 
L 2966 775 
Q 2922 550 2981 450 
Q 3038 353 3209 353 
Q 3256 353 3325 363 
Q 3397 369 3419 372 
L 3338 -44 
Q 3222 -84 3103 -103 
Q 2981 -122 2866 -122 
Q 2491 -122 2388 81 
Q 2284 288 2391 838 
L 2797 2925 
L 1506 2925 
L 938 0 
L 350 0 
L 919 2925 
L 472 2925 
L 584 3500 
z
" transform="scale(0.015625)"/>
      </defs>
      <use xlink:href="#DejaVuSans-Oblique-3ba" transform="translate(0 0.015625)"/>
      <use xlink:href="#DejaVuSans-Oblique-68" transform="translate(58.935547 0.015625)"/>
      <use xlink:href="#DejaVuSans-2f" transform="translate(138.550129 0.015625)"/>
      <use xlink:href="#DejaVuSans-Oblique-3c0" transform="translate(188.477212 0.015625)"/>
     </g>
    </g>
   </g>
   <g id="matplotlib.axis_2">
    <g id="ytick_1">
     <g id="line2d_19">
      <path d="M 48.806875 274.865455 
L 421.2 274.865455 
" clip-path="url(#p7a6d7e9a25)" style="fill: none; stroke: #b0b0b0; stroke-width: 0.8; stroke-linecap: square"/>
     </g>
     <g id="line2d_20">
      <defs>
       <path id="me3ce86ea73" d="M 0 0 
L -3.5 0 
" style="stroke: #000000; stroke-width: 0.8"/>
      </defs>
      <g>
       <use xlink:href="#me3ce86ea73" x="48.806875" y="274.865455" style="stroke: #000000; stroke-width: 0.8"/>
      </g>
     </g>
     <g id="text_11">
      <!-- 0.0 -->
      <g transform="translate(25.90375 278.664673) scale(0.1 -0.1)">
       <use xlink:href="#DejaVuSans-30"/>
       <use xlink:href="#DejaVuSans-2e" x="63.623047"/>
       <use xlink:href="#DejaVuSans-30" x="95.410156"/>
      </g>
     </g>
    </g>
    <g id="ytick_2">
     <g id="line2d_21">
      <path d="M 48.806875 243.429091 
L 421.2 243.429091 
" clip-path="url(#p7a6d7e9a25)" style="fill: none; stroke: #b0b0b0; stroke-width: 0.8; stroke-linecap: square"/>
     </g>
     <g id="line2d_22">
      <g>
       <use xlink:href="#me3ce86ea73" x="48.806875" y="243.429091" style="stroke: #000000; stroke-width: 0.8"/>
      </g>
     </g>
     <g id="text_12">
      <!-- 0.5 -->
      <g transform="translate(25.90375 247.22831) scale(0.1 -0.1)">
       <use xlink:href="#DejaVuSans-30"/>
       <use xlink:href="#DejaVuSans-2e" x="63.623047"/>
       <use xlink:href="#DejaVuSans-35" x="95.410156"/>
      </g>
     </g>
    </g>
    <g id="ytick_3">
     <g id="line2d_23">
      <path d="M 48.806875 211.992727 
L 421.2 211.992727 
" clip-path="url(#p7a6d7e9a25)" style="fill: none; stroke: #b0b0b0; stroke-width: 0.8; stroke-linecap: square"/>
     </g>
     <g id="line2d_24">
      <g>
       <use xlink:href="#me3ce86ea73" x="48.806875" y="211.992727" style="stroke: #000000; stroke-width: 0.8"/>
      </g>
     </g>
     <g id="text_13">
      <!-- 1.0 -->
      <g transform="translate(25.90375 215.791946) scale(0.1 -0.1)">
       <use xlink:href="#DejaVuSans-31"/>
       <use xlink:href="#DejaVuSans-2e" x="63.623047"/>
       <use xlink:href="#DejaVuSans-30" x="95.410156"/>
      </g>
     </g>
    </g>
    <g id="ytick_4">
     <g id="line2d_25">
      <path d="M 48.806875 180.556364 
L 421.2 180.556364 
" clip-path="url(#p7a6d7e9a25)" style="fill: none; stroke: #b0b0b0; stroke-width: 0.8; stroke-linecap: square"/>
     </g>
     <g id="line2d_26">
      <g>
       <use xlink:href="#me3ce86ea73" x="48.806875" y="180.556364" style="stroke: #000000; stroke-width: 0.8"/>
      </g>
     </g>
     <g id="text_14">
      <!-- 1.5 -->
      <g transform="translate(25.90375 184.355582) scale(0.1 -0.1)">
       <use xlink:href="#DejaVuSans-31"/>
       <use xlink:href="#DejaVuSans-2e" x="63.623047"/>
       <use xlink:href="#DejaVuSans-35" x="95.410156"/>
      </g>
     </g>
    </g>
    <g id="ytick_5">
     <g id="line2d_27">
      <path d="M 48.806875 149.12 
L 421.2 149.12 
" clip-path="url(#p7a6d7e9a25)" style="fill: none; stroke: #b0b0b0; stroke-width: 0.8; stroke-linecap: square"/>
     </g>
     <g id="line2d_28">
      <g>
       <use xlink:href="#me3ce86ea73" x="48.806875" y="149.12" style="stroke: #000000; stroke-width: 0.8"/>
      </g>
     </g>
     <g id="text_15">
      <!-- 2.0 -->
      <g transform="translate(25.90375 152.919219) scale(0.1 -0.1)">
       <use xlink:href="#DejaVuSans-32"/>
       <use xlink:href="#DejaVuSans-2e" x="63.623047"/>
       <use xlink:href="#DejaVuSans-30" x="95.410156"/>
      </g>
     </g>
    </g>
    <g id="ytick_6">
     <g id="line2d_29">
      <path d="M 48.806875 117.683636 
L 421.2 117.683636 
" clip-path="url(#p7a6d7e9a25)" style="fill: none; stroke: #b0b0b0; stroke-width: 0.8; stroke-linecap: square"/>
     </g>
     <g id="line2d_30">
      <g>
       <use xlink:href="#me3ce86ea73" x="48.806875" y="117.683636" style="stroke: #000000; stroke-width: 0.8"/>
      </g>
     </g>
     <g id="text_16">
      <!-- 2.5 -->
      <g transform="translate(25.90375 121.482855) scale(0.1 -0.1)">
       <use xlink:href="#DejaVuSans-32"/>
       <use xlink:href="#DejaVuSans-2e" x="63.623047"/>
       <use xlink:href="#DejaVuSans-35" x="95.410156"/>
      </g>
     </g>
    </g>
    <g id="ytick_7">
     <g id="line2d_31">
      <path d="M 48.806875 86.247273 
L 421.2 86.247273 
" clip-path="url(#p7a6d7e9a25)" style="fill: none; stroke: #b0b0b0; stroke-width: 0.8; stroke-linecap: square"/>
     </g>
     <g id="line2d_32">
      <g>
       <use xlink:href="#me3ce86ea73" x="48.806875" y="86.247273" style="stroke: #000000; stroke-width: 0.8"/>
      </g>
     </g>
     <g id="text_17">
      <!-- 3.0 -->
      <g transform="translate(25.90375 90.046491) scale(0.1 -0.1)">
       <use xlink:href="#DejaVuSans-33"/>
       <use xlink:href="#DejaVuSans-2e" x="63.623047"/>
       <use xlink:href="#DejaVuSans-30" x="95.410156"/>
      </g>
     </g>
    </g>
    <g id="ytick_8">
     <g id="line2d_33">
      <path d="M 48.806875 54.810909 
L 421.2 54.810909 
" clip-path="url(#p7a6d7e9a25)" style="fill: none; stroke: #b0b0b0; stroke-width: 0.8; stroke-linecap: square"/>
     </g>
     <g id="line2d_34">
      <g>
       <use xlink:href="#me3ce86ea73" x="48.806875" y="54.810909" style="stroke: #000000; stroke-width: 0.8"/>
      </g>
     </g>
     <g id="text_18">
      <!-- 3.5 -->
      <g transform="translate(25.90375 58.610128) scale(0.1 -0.1)">
       <use xlink:href="#DejaVuSans-33"/>
       <use xlink:href="#DejaVuSans-2e" x="63.623047"/>
       <use xlink:href="#DejaVuSans-35" x="95.410156"/>
      </g>
     </g>
    </g>
    <g id="ytick_9">
     <g id="line2d_35">
      <path d="M 48.806875 23.374545 
L 421.2 23.374545 
" clip-path="url(#p7a6d7e9a25)" style="fill: none; stroke: #b0b0b0; stroke-width: 0.8; stroke-linecap: square"/>
     </g>
     <g id="line2d_36">
      <g>
       <use xlink:href="#me3ce86ea73" x="48.806875" y="23.374545" style="stroke: #000000; stroke-width: 0.8"/>
      </g>
     </g>
     <g id="text_19">
      <!-- 4.0 -->
      <g transform="translate(25.90375 27.173764) scale(0.1 -0.1)">
       <use xlink:href="#DejaVuSans-34"/>
       <use xlink:href="#DejaVuSans-2e" x="63.623047"/>
       <use xlink:href="#DejaVuSans-30" x="95.410156"/>
      </g>
     </g>
    </g>
    <g id="text_20">
     <!-- $\Re(\tilde{\kappa}h)\,/\,$$\pi$ -->
     <g transform="translate(19.824063 169.57) rotate(-90) scale(0.1 -0.1)">
      <defs>
       <path id="DejaVuSans-Oblique-211c" d="M 4006 -91 
Q 3750 481 3750 978 
Q 3750 1416 3681 1700 
Q 3556 2219 3309 2219 
Q 3178 2219 2891 2084 
L 2516 1909 
L 2516 1288 
Q 2516 644 2194 275 
Q 1872 -91 1434 -91 
Q 994 -91 675 275 
Q 353 644 353 1194 
Q 494 1156 638 1119 
Q 638 738 838 469 
Q 1038 197 1263 197 
Q 1488 197 1684 469 
Q 1884 741 1884 1209 
L 1884 3294 
Q 1884 3759 1684 4034 
Q 1488 4306 1200 4306 
Q 947 4306 744 4034 
Q 544 3766 544 3450 
Q 544 3134 744 2866 
Q 944 2594 1203 2594 
L 1372 2306 
Q 900 2306 581 2672 
Q 259 3041 259 3528 
Q 259 4019 581 4384 
Q 900 4750 1372 4750 
Q 1878 4750 2194 4384 
Q 2288 4275 2338 4175 
L 2997 4481 
Q 3581 4753 3931 4753 
Q 4078 4753 4191 4709 
Q 4584 4556 4584 4003 
Q 4584 3731 4381 3347 
Q 4175 2959 3784 2666 
Q 3966 2666 4119 2513 
Q 4231 2400 4316 2075 
Q 4416 1691 4416 1281 
Q 4416 881 4556 513 
L 5006 722 
L 5138 438 
L 4006 -91 
z
M 2450 3897 
Q 2516 3663 2516 3375 
L 2516 2241 
L 2997 2463 
Q 3447 2672 3688 2997 
Q 3919 3316 3919 3694 
Q 3919 4166 3688 4266 
Q 3613 4297 3516 4297 
Q 3316 4297 2997 4150 
L 2450 3897 
z
" transform="scale(0.015625)"/>
       <path id="DejaVuSans-28" d="M 1984 4856 
Q 1566 4138 1362 3434 
Q 1159 2731 1159 2009 
Q 1159 1288 1364 580 
Q 1569 -128 1984 -844 
L 1484 -844 
Q 1016 -109 783 600 
Q 550 1309 550 2009 
Q 550 2706 781 3412 
Q 1013 4119 1484 4856 
L 1984 4856 
z
" transform="scale(0.015625)"/>
       <path id="DejaVuSans-303" d="M -1621 4281 
L -1799 4453 
Q -1867 4516 -1919 4545 
Q -1971 4575 -2011 4575 
Q -2130 4575 -2186 4461 
Q -2242 4347 -2249 4091 
L -2639 4091 
Q -2633 4513 -2473 4742 
Q -2314 4972 -2030 4972 
Q -1911 4972 -1811 4928 
Q -1711 4884 -1596 4781 
L -1417 4609 
Q -1349 4547 -1297 4517 
Q -1246 4488 -1205 4488 
Q -1086 4488 -1030 4602 
Q -974 4716 -967 4972 
L -577 4972 
Q -583 4550 -742 4320 
Q -902 4091 -1186 4091 
Q -1305 4091 -1405 4134 
Q -1505 4178 -1621 4281 
z
" transform="scale(0.015625)"/>
       <path id="DejaVuSans-29" d="M 513 4856 
L 1013 4856 
Q 1481 4119 1714 3412 
Q 1947 2706 1947 2009 
Q 1947 1309 1714 600 
Q 1481 -109 1013 -844 
L 513 -844 
Q 928 -128 1133 580 
Q 1338 1288 1338 2009 
Q 1338 2731 1133 3434 
Q 928 4138 513 4856 
z
" transform="scale(0.015625)"/>
      </defs>
      <use xlink:href="#DejaVuSans-Oblique-211c" transform="translate(0 0.046875)"/>
      <use xlink:href="#DejaVuSans-28" transform="translate(81.396484 0.046875)"/>
      <use xlink:href="#DejaVuSans-303" transform="translate(182.378418 3.3125)"/>
      <use xlink:href="#DejaVuSans-Oblique-3ba" transform="translate(120.410156 0.046875)"/>
      <use xlink:href="#DejaVuSans-Oblique-68" transform="translate(179.345703 0.046875)"/>
      <use xlink:href="#DejaVuSans-29" transform="translate(242.724609 0.046875)"/>
      <use xlink:href="#DejaVuSans-2f" transform="translate(297.973958 0.046875)"/>
      <use xlink:href="#DejaVuSans-Oblique-3c0" transform="translate(347.90104 0.046875)"/>
     </g>
    </g>
   </g>
   <g id="line2d_37">
    <path d="M 65.733835 274.865455 
L 72.642799 269.732987 
L 79.551762 264.600519 
L 86.460725 259.468052 
L 93.369689 254.335582 
L 100.278652 249.203101 
L 107.187615 244.070569 
L 114.096579 238.937868 
L 121.005542 233.804703 
L 127.914505 228.670436 
L 134.823469 223.533831 
L 141.732432 218.392716 
L 148.641396 213.243549 
L 155.550359 208.080954 
L 162.459322 202.89723 
L 169.368286 197.681921 
L 176.277249 192.421464 
L 183.186212 187.098953 
L 190.095176 181.694019 
L 197.004139 176.182825 
L 203.913102 170.538164 
L 210.822066 164.729655 
L 217.731029 158.724084 
L 224.639992 152.485944 
L 231.548956 145.978284 
L 238.457919 139.164063 
L 245.366883 132.008237 
L 252.275846 124.480927 
L 259.184809 116.562079 
L 266.093773 108.248113 
L 273.002736 99.561048 
L 279.911699 90.560451 
L 286.820663 81.358223 
L 293.729626 72.135493 
L 300.638589 63.159823 
L 307.547553 54.799604 
L 314.456516 47.531249 
L 321.365479 41.934298 
L 328.274443 38.670321 
L 335.183406 38.443905 
L 342.09237 41.947603 
L 349.001333 49.796377 
L 355.910296 62.459748 
L 362.81926 80.200692 
L 369.728223 103.029311 
L 376.637186 130.677088 
L 383.54615 162.594715 
L 390.455113 197.973772 
L 397.364076 235.790168 
L 404.27304 274.865455 
" clip-path="url(#p7a6d7e9a25)" style="fill: none; stroke-dasharray: 1.5,1.5; stroke-dashoffset: 0; stroke: #1f77b4; stroke-width: 1.5"/>
   </g>
   <g id="line2d_38">
    <path d="M 65.733835 274.865455 
L 72.642799 269.732987 
L 79.551762 264.600519 
L 86.460725 259.468052 
L 93.369689 254.335582 
L 100.278652 249.203101 
L 107.187615 244.070569 
L 114.096579 238.937868 
L 121.005542 233.804703 
L 127.914505 228.670436 
L 134.823469 223.533831 
L 141.732432 218.392716 
L 148.641396 213.243549 
L 155.550359 208.080954 
L 162.459322 202.89723 
L 169.368286 197.681921 
L 176.277249 192.421464 
L 183.186212 187.098953 
L 190.095176 181.694019 
L 197.004139 176.182825 
L 203.913102 170.538164 
L 210.822066 164.729655 
L 217.731029 158.724084 
L 224.639992 152.485944 
L 231.548956 145.978284 
L 238.457919 139.164063 
L 245.366883 132.008237 
L 252.275846 124.480927 
L 259.184809 116.562079 
L 266.093773 108.248113 
L 273.002736 99.561048 
L 279.911699 90.560451 
L 286.820663 81.358223 
L 293.729626 72.135493 
L 300.638589 63.159823 
L 307.547553 54.799604 
L 314.456516 47.531249 
L 321.365479 41.934298 
L 328.274443 38.670321 
L 335.183406 38.443905 
L 342.09237 41.947603 
L 349.001333 49.796377 
L 355.910296 62.459748 
L 362.81926 80.200692 
L 369.728223 103.029311 
L 376.637186 130.677088 
L 383.54615 162.594715 
L 390.455113 197.973772 
L 397.364076 235.790168 
L 404.27304 274.865455 
" clip-path="url(#p7a6d7e9a25)" style="fill: none; stroke-dasharray: 1.5,6; stroke-dashoffset: 0; stroke: #ff7f0e; stroke-width: 1.5"/>
   </g>
   <g id="line2d_39">
    <path d="M 65.733835 274.865455 
L 72.642799 269.732987 
L 79.551762 264.600522 
L 86.460725 259.468092 
L 93.369689 254.335876 
L 100.278652 249.20444 
L 107.187615 244.075114 
L 114.096579 238.950388 
L 121.005542 233.834197 
L 127.914505 228.731886 
L 134.823469 223.649723 
L 141.732432 218.593986 
L 148.641396 213.569868 
L 155.550359 208.580589 
L 162.459322 203.627112 
L 169.368286 198.708622 
L 176.277249 193.823694 
L 183.186212 188.971917 
L 190.095176 184.155707 
L 197.004139 179.382104 
L 203.913102 174.664422 
L 210.822066 170.02368 
L 217.731029 165.489739 
L 224.639992 161.102077 
L 231.548956 156.910117 
L 238.457919 152.973027 
L 245.366883 149.358915 
L 252.275846 146.1434 
L 259.184809 143.407553 
L 266.093773 141.23531 
L 273.002736 139.710464 
L 279.911699 138.913474 
L 286.820663 138.918341 
L 293.729626 139.789878 
L 300.638589 141.581632 
L 307.547553 144.334627 
L 314.456516 148.076852 
L 321.365479 152.823195 
L 328.274443 158.57544 
L 335.183406 165.322054 
L 342.09237 173.037714 
L 349.001333 181.682745 
L 355.910296 191.202714 
L 362.81926 201.528377 
L 369.728223 212.576104 
L 376.637186 224.248794 
L 383.54615 236.437274 
L 390.455113 249.022121 
L 397.364076 261.875857 
L 404.27304 274.865455 
" clip-path="url(#p7a6d7e9a25)" style="fill: none; stroke-dasharray: 6,6; stroke-dashoffset: 0; stroke: #2ca02c; stroke-width: 1.5"/>
   </g>
   <g id="line2d_40">
    <path d="M 65.733835 274.865455 
L 72.642799 269.732987 
L 79.551762 264.600522 
L 86.460725 259.468092 
L 93.369689 254.335876 
L 100.278652 249.20444 
L 107.187615 244.075114 
L 114.096579 238.950388 
L 121.005542 233.834197 
L 127.914505 228.731886 
L 134.823469 223.649723 
L 141.732432 218.593986 
L 148.641396 213.569868 
L 155.550359 208.580589 
L 162.459322 203.627112 
L 169.368286 198.708622 
L 176.277249 193.823694 
L 183.186212 188.971917 
L 190.095176 184.155707 
L 197.004139 179.382104 
L 203.913102 174.664422 
L 210.822066 170.02368 
L 217.731029 165.489739 
L 224.639992 161.102077 
L 231.548956 156.910117 
L 238.457919 152.973027 
L 245.366883 149.358915 
L 252.275846 146.1434 
L 259.184809 143.407553 
L 266.093773 141.23531 
L 273.002736 139.710464 
L 279.911699 138.913474 
L 286.820663 138.918341 
L 293.729626 139.789878 
L 300.638589 141.581632 
L 307.547553 144.334627 
L 314.456516 148.076852 
L 321.365479 152.823195 
L 328.274443 158.57544 
L 335.183406 165.322054 
L 342.09237 173.037714 
L 349.001333 181.682745 
L 355.910296 191.202714 
L 362.81926 201.528377 
L 369.728223 212.576104 
L 376.637186 224.248794 
L 383.54615 236.437274 
L 390.455113 249.022121 
L 397.364076 261.875857 
L 404.27304 274.865455 
" clip-path="url(#p7a6d7e9a25)" style="fill: none; stroke-dasharray: 6,1.5; stroke-dashoffset: 0; stroke: #d62728; stroke-width: 1.5"/>
   </g>
   <g id="line2d_41">
    <path d="M 65.733835 274.865455 
L 72.642799 269.732987 
L 79.551762 264.600522 
L 86.460725 259.468092 
L 93.369689 254.335876 
L 100.278652 249.20444 
L 107.187615 244.075114 
L 114.096579 238.950388 
L 121.005542 233.834197 
L 127.914505 228.731886 
L 134.823469 223.649723 
L 141.732432 218.593986 
L 148.641396 213.569868 
L 155.550359 208.580589 
L 162.459322 203.627112 
L 169.368286 198.708622 
L 176.277249 193.823694 
L 183.186212 188.971917 
L 190.095176 184.155707 
L 197.004139 179.382104 
L 203.913102 174.664422 
L 210.822066 170.02368 
L 217.731029 165.489739 
L 224.639992 161.102077 
L 231.548956 156.910117 
L 238.457919 152.973027 
L 245.366883 149.358915 
L 252.275846 146.1434 
L 259.184809 143.407553 
L 266.093773 141.23531 
L 273.002736 139.710464 
L 279.911699 138.913474 
L 286.820663 138.918341 
L 293.729626 139.789878 
L 300.638589 141.581632 
L 307.547553 144.334627 
L 314.456516 148.076852 
L 321.365479 152.823195 
L 328.274443 158.57544 
L 335.183406 165.322054 
L 342.09237 173.037714 
L 349.001333 181.682745 
L 355.910296 191.202714 
L 362.81926 201.528377 
L 369.728223 212.576104 
L 376.637186 224.248794 
L 383.54615 236.437274 
L 390.455113 249.022121 
L 397.364076 261.875857 
L 404.27304 274.865455 
" clip-path="url(#p7a6d7e9a25)" style="fill: none; stroke-dasharray: 6,12; stroke-dashoffset: 0; stroke: #9467bd; stroke-width: 1.5"/>
   </g>
   <g id="line2d_42">
    <path d="M 65.733835 274.865455 
L 404.27304 23.374545 
" clip-path="url(#p7a6d7e9a25)" style="fill: none; stroke: #8c564b; stroke-width: 1.5; stroke-linecap: square"/>
   </g>
   <g id="patch_3">
    <path d="M 48.806875 287.44 
L 48.806875 10.8 
" style="fill: none; stroke: #000000; stroke-width: 0.8; stroke-linejoin: miter; stroke-linecap: square"/>
   </g>
   <g id="patch_4">
    <path d="M 421.2 287.44 
L 421.2 10.8 
" style="fill: none; stroke: #000000; stroke-width: 0.8; stroke-linejoin: miter; stroke-linecap: square"/>
   </g>
   <g id="patch_5">
    <path d="M 48.806875 287.44 
L 421.2 287.44 
" style="fill: none; stroke: #000000; stroke-width: 0.8; stroke-linejoin: miter; stroke-linecap: square"/>
   </g>
   <g id="patch_6">
    <path d="M 48.806875 10.8 
L 421.2 10.8 
" style="fill: none; stroke: #000000; stroke-width: 0.8; stroke-linejoin: miter; stroke-linecap: square"/>
   </g>
   <g id="legend_1">
    <g id="patch_7">
     <path d="M 55.806875 106.978125 
L 247.206875 106.978125 
Q 249.206875 106.978125 249.206875 104.978125 
L 249.206875 17.8 
Q 249.206875 15.8 247.206875 15.8 
L 55.806875 15.8 
Q 53.806875 15.8 53.806875 17.8 
L 53.806875 104.978125 
Q 53.806875 106.978125 55.806875 106.978125 
z
" style="fill: #ffffff; opacity: 0.8; stroke: #cccccc; stroke-linejoin: miter"/>
    </g>
    <g id="line2d_43">
     <path d="M 57.806875 23.9 
L 77.806875 23.9 
L 97.806875 23.9 
" style="fill: none; stroke-dasharray: 1.5,1.5; stroke-dashoffset: 0; stroke: #1f77b4; stroke-width: 1.5"/>
    </g>
    <g id="text_21">
     <!-- LegendreDG ($p=$3) -->
     <g transform="translate(105.806875 27.4) scale(0.1 -0.1)">
      <defs>
       <path id="DejaVuSans-4c" d="M 628 4666 
L 1259 4666 
L 1259 531 
L 3531 531 
L 3531 0 
L 628 0 
L 628 4666 
z
" transform="scale(0.015625)"/>
       <path id="DejaVuSans-65" d="M 3597 1894 
L 3597 1613 
L 953 1613 
Q 991 1019 1311 708 
Q 1631 397 2203 397 
Q 2534 397 2845 478 
Q 3156 559 3463 722 
L 3463 178 
Q 3153 47 2828 -22 
Q 2503 -91 2169 -91 
Q 1331 -91 842 396 
Q 353 884 353 1716 
Q 353 2575 817 3079 
Q 1281 3584 2069 3584 
Q 2775 3584 3186 3129 
Q 3597 2675 3597 1894 
z
M 3022 2063 
Q 3016 2534 2758 2815 
Q 2500 3097 2075 3097 
Q 1594 3097 1305 2825 
Q 1016 2553 972 2059 
L 3022 2063 
z
" transform="scale(0.015625)"/>
       <path id="DejaVuSans-67" d="M 2906 1791 
Q 2906 2416 2648 2759 
Q 2391 3103 1925 3103 
Q 1463 3103 1205 2759 
Q 947 2416 947 1791 
Q 947 1169 1205 825 
Q 1463 481 1925 481 
Q 2391 481 2648 825 
Q 2906 1169 2906 1791 
z
M 3481 434 
Q 3481 -459 3084 -895 
Q 2688 -1331 1869 -1331 
Q 1566 -1331 1297 -1286 
Q 1028 -1241 775 -1147 
L 775 -588 
Q 1028 -725 1275 -790 
Q 1522 -856 1778 -856 
Q 2344 -856 2625 -561 
Q 2906 -266 2906 331 
L 2906 616 
Q 2728 306 2450 153 
Q 2172 0 1784 0 
Q 1141 0 747 490 
Q 353 981 353 1791 
Q 353 2603 747 3093 
Q 1141 3584 1784 3584 
Q 2172 3584 2450 3431 
Q 2728 3278 2906 2969 
L 2906 3500 
L 3481 3500 
L 3481 434 
z
" transform="scale(0.015625)"/>
       <path id="DejaVuSans-6e" d="M 3513 2113 
L 3513 0 
L 2938 0 
L 2938 2094 
Q 2938 2591 2744 2837 
Q 2550 3084 2163 3084 
Q 1697 3084 1428 2787 
Q 1159 2491 1159 1978 
L 1159 0 
L 581 0 
L 581 3500 
L 1159 3500 
L 1159 2956 
Q 1366 3272 1645 3428 
Q 1925 3584 2291 3584 
Q 2894 3584 3203 3211 
Q 3513 2838 3513 2113 
z
" transform="scale(0.015625)"/>
       <path id="DejaVuSans-64" d="M 2906 2969 
L 2906 4863 
L 3481 4863 
L 3481 0 
L 2906 0 
L 2906 525 
Q 2725 213 2448 61 
Q 2172 -91 1784 -91 
Q 1150 -91 751 415 
Q 353 922 353 1747 
Q 353 2572 751 3078 
Q 1150 3584 1784 3584 
Q 2172 3584 2448 3432 
Q 2725 3281 2906 2969 
z
M 947 1747 
Q 947 1113 1208 752 
Q 1469 391 1925 391 
Q 2381 391 2643 752 
Q 2906 1113 2906 1747 
Q 2906 2381 2643 2742 
Q 2381 3103 1925 3103 
Q 1469 3103 1208 2742 
Q 947 2381 947 1747 
z
" transform="scale(0.015625)"/>
       <path id="DejaVuSans-72" d="M 2631 2963 
Q 2534 3019 2420 3045 
Q 2306 3072 2169 3072 
Q 1681 3072 1420 2755 
Q 1159 2438 1159 1844 
L 1159 0 
L 581 0 
L 581 3500 
L 1159 3500 
L 1159 2956 
Q 1341 3275 1631 3429 
Q 1922 3584 2338 3584 
Q 2397 3584 2469 3576 
Q 2541 3569 2628 3553 
L 2631 2963 
z
" transform="scale(0.015625)"/>
       <path id="DejaVuSans-44" d="M 1259 4147 
L 1259 519 
L 2022 519 
Q 2988 519 3436 956 
Q 3884 1394 3884 2338 
Q 3884 3275 3436 3711 
Q 2988 4147 2022 4147 
L 1259 4147 
z
M 628 4666 
L 1925 4666 
Q 3281 4666 3915 4102 
Q 4550 3538 4550 2338 
Q 4550 1131 3912 565 
Q 3275 0 1925 0 
L 628 0 
L 628 4666 
z
" transform="scale(0.015625)"/>
       <path id="DejaVuSans-47" d="M 3809 666 
L 3809 1919 
L 2778 1919 
L 2778 2438 
L 4434 2438 
L 4434 434 
Q 4069 175 3628 42 
Q 3188 -91 2688 -91 
Q 1594 -91 976 548 
Q 359 1188 359 2328 
Q 359 3472 976 4111 
Q 1594 4750 2688 4750 
Q 3144 4750 3555 4637 
Q 3966 4525 4313 4306 
L 4313 3634 
Q 3963 3931 3569 4081 
Q 3175 4231 2741 4231 
Q 1884 4231 1454 3753 
Q 1025 3275 1025 2328 
Q 1025 1384 1454 906 
Q 1884 428 2741 428 
Q 3075 428 3337 486 
Q 3600 544 3809 666 
z
" transform="scale(0.015625)"/>
       <path id="DejaVuSans-20" transform="scale(0.015625)"/>
       <path id="DejaVuSans-Oblique-70" d="M 3175 2156 
Q 3175 2616 2975 2859 
Q 2775 3103 2400 3103 
Q 2144 3103 1911 2972 
Q 1678 2841 1497 2591 
Q 1319 2344 1212 1994 
Q 1106 1644 1106 1300 
Q 1106 863 1306 627 
Q 1506 391 1875 391 
Q 2147 391 2380 519 
Q 2613 647 2778 891 
Q 2956 1147 3065 1494 
Q 3175 1841 3175 2156 
z
M 1394 2969 
Q 1625 3272 1939 3428 
Q 2253 3584 2638 3584 
Q 3175 3584 3472 3232 
Q 3769 2881 3769 2247 
Q 3769 1728 3584 1258 
Q 3400 788 3053 416 
Q 2822 169 2531 39 
Q 2241 -91 1919 -91 
Q 1547 -91 1294 64 
Q 1041 219 916 525 
L 556 -1331 
L -19 -1331 
L 922 3500 
L 1497 3500 
L 1394 2969 
z
" transform="scale(0.015625)"/>
       <path id="DejaVuSans-3d" d="M 678 2906 
L 4684 2906 
L 4684 2381 
L 678 2381 
L 678 2906 
z
M 678 1631 
L 4684 1631 
L 4684 1100 
L 678 1100 
L 678 1631 
z
" transform="scale(0.015625)"/>
      </defs>
      <use xlink:href="#DejaVuSans-4c" transform="translate(0 0.015625)"/>
      <use xlink:href="#DejaVuSans-65" transform="translate(55.712891 0.015625)"/>
      <use xlink:href="#DejaVuSans-67" transform="translate(117.236328 0.015625)"/>
      <use xlink:href="#DejaVuSans-65" transform="translate(180.712891 0.015625)"/>
      <use xlink:href="#DejaVuSans-6e" transform="translate(242.236328 0.015625)"/>
      <use xlink:href="#DejaVuSans-64" transform="translate(305.615234 0.015625)"/>
      <use xlink:href="#DejaVuSans-72" transform="translate(369.091797 0.015625)"/>
      <use xlink:href="#DejaVuSans-65" transform="translate(410.205078 0.015625)"/>
      <use xlink:href="#DejaVuSans-44" transform="translate(471.728516 0.015625)"/>
      <use xlink:href="#DejaVuSans-47" transform="translate(548.730469 0.015625)"/>
      <use xlink:href="#DejaVuSans-20" transform="translate(626.220703 0.015625)"/>
      <use xlink:href="#DejaVuSans-28" transform="translate(658.007812 0.015625)"/>
      <use xlink:href="#DejaVuSans-Oblique-70" transform="translate(697.021484 0.015625)"/>
      <use xlink:href="#DejaVuSans-3d" transform="translate(779.980469 0.015625)"/>
      <use xlink:href="#DejaVuSans-33" transform="translate(883.251953 0.015625)"/>
      <use xlink:href="#DejaVuSans-29" transform="translate(946.875 0.015625)"/>
     </g>
    </g>
    <g id="line2d_44">
     <path d="M 57.806875 38.6 
L 77.806875 38.6 
L 97.806875 38.6 
" style="fill: none; stroke-dasharray: 1.5,6; stroke-dashoffset: 0; stroke: #ff7f0e; stroke-width: 1.5"/>
    </g>
    <g id="text_22">
     <!-- DGonLegendreRoots ($p=$3) -->
     <g transform="translate(105.806875 42.1) scale(0.1 -0.1)">
      <defs>
       <path id="DejaVuSans-6f" d="M 1959 3097 
Q 1497 3097 1228 2736 
Q 959 2375 959 1747 
Q 959 1119 1226 758 
Q 1494 397 1959 397 
Q 2419 397 2687 759 
Q 2956 1122 2956 1747 
Q 2956 2369 2687 2733 
Q 2419 3097 1959 3097 
z
M 1959 3584 
Q 2709 3584 3137 3096 
Q 3566 2609 3566 1747 
Q 3566 888 3137 398 
Q 2709 -91 1959 -91 
Q 1206 -91 779 398 
Q 353 888 353 1747 
Q 353 2609 779 3096 
Q 1206 3584 1959 3584 
z
" transform="scale(0.015625)"/>
       <path id="DejaVuSans-52" d="M 2841 2188 
Q 3044 2119 3236 1894 
Q 3428 1669 3622 1275 
L 4263 0 
L 3584 0 
L 2988 1197 
Q 2756 1666 2539 1819 
Q 2322 1972 1947 1972 
L 1259 1972 
L 1259 0 
L 628 0 
L 628 4666 
L 2053 4666 
Q 2853 4666 3247 4331 
Q 3641 3997 3641 3322 
Q 3641 2881 3436 2590 
Q 3231 2300 2841 2188 
z
M 1259 4147 
L 1259 2491 
L 2053 2491 
Q 2509 2491 2742 2702 
Q 2975 2913 2975 3322 
Q 2975 3731 2742 3939 
Q 2509 4147 2053 4147 
L 1259 4147 
z
" transform="scale(0.015625)"/>
       <path id="DejaVuSans-74" d="M 1172 4494 
L 1172 3500 
L 2356 3500 
L 2356 3053 
L 1172 3053 
L 1172 1153 
Q 1172 725 1289 603 
Q 1406 481 1766 481 
L 2356 481 
L 2356 0 
L 1766 0 
Q 1100 0 847 248 
Q 594 497 594 1153 
L 594 3053 
L 172 3053 
L 172 3500 
L 594 3500 
L 594 4494 
L 1172 4494 
z
" transform="scale(0.015625)"/>
       <path id="DejaVuSans-73" d="M 2834 3397 
L 2834 2853 
Q 2591 2978 2328 3040 
Q 2066 3103 1784 3103 
Q 1356 3103 1142 2972 
Q 928 2841 928 2578 
Q 928 2378 1081 2264 
Q 1234 2150 1697 2047 
L 1894 2003 
Q 2506 1872 2764 1633 
Q 3022 1394 3022 966 
Q 3022 478 2636 193 
Q 2250 -91 1575 -91 
Q 1294 -91 989 -36 
Q 684 19 347 128 
L 347 722 
Q 666 556 975 473 
Q 1284 391 1588 391 
Q 1994 391 2212 530 
Q 2431 669 2431 922 
Q 2431 1156 2273 1281 
Q 2116 1406 1581 1522 
L 1381 1569 
Q 847 1681 609 1914 
Q 372 2147 372 2553 
Q 372 3047 722 3315 
Q 1072 3584 1716 3584 
Q 2034 3584 2315 3537 
Q 2597 3491 2834 3397 
z
" transform="scale(0.015625)"/>
      </defs>
      <use xlink:href="#DejaVuSans-44" transform="translate(0 0.015625)"/>
      <use xlink:href="#DejaVuSans-47" transform="translate(77.001953 0.015625)"/>
      <use xlink:href="#DejaVuSans-6f" transform="translate(154.492188 0.015625)"/>
      <use xlink:href="#DejaVuSans-6e" transform="translate(215.673828 0.015625)"/>
      <use xlink:href="#DejaVuSans-4c" transform="translate(279.052734 0.015625)"/>
      <use xlink:href="#DejaVuSans-65" transform="translate(334.765625 0.015625)"/>
      <use xlink:href="#DejaVuSans-67" transform="translate(396.289062 0.015625)"/>
      <use xlink:href="#DejaVuSans-65" transform="translate(459.765625 0.015625)"/>
      <use xlink:href="#DejaVuSans-6e" transform="translate(521.289062 0.015625)"/>
      <use xlink:href="#DejaVuSans-64" transform="translate(584.667969 0.015625)"/>
      <use xlink:href="#DejaVuSans-72" transform="translate(648.144531 0.015625)"/>
      <use xlink:href="#DejaVuSans-65" transform="translate(689.257812 0.015625)"/>
      <use xlink:href="#DejaVuSans-52" transform="translate(750.78125 0.015625)"/>
      <use xlink:href="#DejaVuSans-6f" transform="translate(820.263672 0.015625)"/>
      <use xlink:href="#DejaVuSans-6f" transform="translate(881.445312 0.015625)"/>
      <use xlink:href="#DejaVuSans-74" transform="translate(942.626953 0.015625)"/>
      <use xlink:href="#DejaVuSans-73" transform="translate(981.835938 0.015625)"/>
      <use xlink:href="#DejaVuSans-20" transform="translate(1033.935547 0.015625)"/>
      <use xlink:href="#DejaVuSans-28" transform="translate(1065.722656 0.015625)"/>
      <use xlink:href="#DejaVuSans-Oblique-70" transform="translate(1104.736328 0.015625)"/>
      <use xlink:href="#DejaVuSans-3d" transform="translate(1187.695312 0.015625)"/>
      <use xlink:href="#DejaVuSans-33" transform="translate(1290.966797 0.015625)"/>
      <use xlink:href="#DejaVuSans-29" transform="translate(1354.589844 0.015625)"/>
     </g>
    </g>
    <g id="line2d_45">
     <path d="M 57.806875 53.3 
L 77.806875 53.3 
L 97.806875 53.3 
" style="fill: none; stroke-dasharray: 6,6; stroke-dashoffset: 0; stroke: #2ca02c; stroke-width: 1.5"/>
    </g>
    <g id="text_23">
     <!-- DGonLobattoRoots ($p=$3) -->
     <g transform="translate(105.806875 56.8) scale(0.1 -0.1)">
      <defs>
       <path id="DejaVuSans-62" d="M 3116 1747 
Q 3116 2381 2855 2742 
Q 2594 3103 2138 3103 
Q 1681 3103 1420 2742 
Q 1159 2381 1159 1747 
Q 1159 1113 1420 752 
Q 1681 391 2138 391 
Q 2594 391 2855 752 
Q 3116 1113 3116 1747 
z
M 1159 2969 
Q 1341 3281 1617 3432 
Q 1894 3584 2278 3584 
Q 2916 3584 3314 3078 
Q 3713 2572 3713 1747 
Q 3713 922 3314 415 
Q 2916 -91 2278 -91 
Q 1894 -91 1617 61 
Q 1341 213 1159 525 
L 1159 0 
L 581 0 
L 581 4863 
L 1159 4863 
L 1159 2969 
z
" transform="scale(0.015625)"/>
       <path id="DejaVuSans-61" d="M 2194 1759 
Q 1497 1759 1228 1600 
Q 959 1441 959 1056 
Q 959 750 1161 570 
Q 1363 391 1709 391 
Q 2188 391 2477 730 
Q 2766 1069 2766 1631 
L 2766 1759 
L 2194 1759 
z
M 3341 1997 
L 3341 0 
L 2766 0 
L 2766 531 
Q 2569 213 2275 61 
Q 1981 -91 1556 -91 
Q 1019 -91 701 211 
Q 384 513 384 1019 
Q 384 1609 779 1909 
Q 1175 2209 1959 2209 
L 2766 2209 
L 2766 2266 
Q 2766 2663 2505 2880 
Q 2244 3097 1772 3097 
Q 1472 3097 1187 3025 
Q 903 2953 641 2809 
L 641 3341 
Q 956 3463 1253 3523 
Q 1550 3584 1831 3584 
Q 2591 3584 2966 3190 
Q 3341 2797 3341 1997 
z
" transform="scale(0.015625)"/>
      </defs>
      <use xlink:href="#DejaVuSans-44" transform="translate(0 0.015625)"/>
      <use xlink:href="#DejaVuSans-47" transform="translate(77.001953 0.015625)"/>
      <use xlink:href="#DejaVuSans-6f" transform="translate(154.492188 0.015625)"/>
      <use xlink:href="#DejaVuSans-6e" transform="translate(215.673828 0.015625)"/>
      <use xlink:href="#DejaVuSans-4c" transform="translate(279.052734 0.015625)"/>
      <use xlink:href="#DejaVuSans-6f" transform="translate(334.765625 0.015625)"/>
      <use xlink:href="#DejaVuSans-62" transform="translate(395.947266 0.015625)"/>
      <use xlink:href="#DejaVuSans-61" transform="translate(459.423828 0.015625)"/>
      <use xlink:href="#DejaVuSans-74" transform="translate(520.703125 0.015625)"/>
      <use xlink:href="#DejaVuSans-74" transform="translate(559.912109 0.015625)"/>
      <use xlink:href="#DejaVuSans-6f" transform="translate(599.121094 0.015625)"/>
      <use xlink:href="#DejaVuSans-52" transform="translate(660.302734 0.015625)"/>
      <use xlink:href="#DejaVuSans-6f" transform="translate(729.785156 0.015625)"/>
      <use xlink:href="#DejaVuSans-6f" transform="translate(790.966797 0.015625)"/>
      <use xlink:href="#DejaVuSans-74" transform="translate(852.148438 0.015625)"/>
      <use xlink:href="#DejaVuSans-73" transform="translate(891.357422 0.015625)"/>
      <use xlink:href="#DejaVuSans-20" transform="translate(943.457031 0.015625)"/>
      <use xlink:href="#DejaVuSans-28" transform="translate(975.244141 0.015625)"/>
      <use xlink:href="#DejaVuSans-Oblique-70" transform="translate(1014.257812 0.015625)"/>
      <use xlink:href="#DejaVuSans-3d" transform="translate(1097.216797 0.015625)"/>
      <use xlink:href="#DejaVuSans-33" transform="translate(1200.488281 0.015625)"/>
      <use xlink:href="#DejaVuSans-29" transform="translate(1264.111328 0.015625)"/>
     </g>
    </g>
    <g id="line2d_46">
     <path d="M 57.806875 68 
L 77.806875 68 
L 97.806875 68 
" style="fill: none; stroke-dasharray: 6,1.5; stroke-dashoffset: 0; stroke: #d62728; stroke-width: 1.5"/>
    </g>
    <g id="text_24">
     <!-- FRonLegendreRoots ($p=$3) -->
     <g transform="translate(105.806875 71.5) scale(0.1 -0.1)">
      <defs>
       <path id="DejaVuSans-46" d="M 628 4666 
L 3309 4666 
L 3309 4134 
L 1259 4134 
L 1259 2759 
L 3109 2759 
L 3109 2228 
L 1259 2228 
L 1259 0 
L 628 0 
L 628 4666 
z
" transform="scale(0.015625)"/>
      </defs>
      <use xlink:href="#DejaVuSans-46" transform="translate(0 0.015625)"/>
      <use xlink:href="#DejaVuSans-52" transform="translate(57.519531 0.015625)"/>
      <use xlink:href="#DejaVuSans-6f" transform="translate(127.001953 0.015625)"/>
      <use xlink:href="#DejaVuSans-6e" transform="translate(188.183594 0.015625)"/>
      <use xlink:href="#DejaVuSans-4c" transform="translate(251.5625 0.015625)"/>
      <use xlink:href="#DejaVuSans-65" transform="translate(307.275391 0.015625)"/>
      <use xlink:href="#DejaVuSans-67" transform="translate(368.798828 0.015625)"/>
      <use xlink:href="#DejaVuSans-65" transform="translate(432.275391 0.015625)"/>
      <use xlink:href="#DejaVuSans-6e" transform="translate(493.798828 0.015625)"/>
      <use xlink:href="#DejaVuSans-64" transform="translate(557.177734 0.015625)"/>
      <use xlink:href="#DejaVuSans-72" transform="translate(620.654297 0.015625)"/>
      <use xlink:href="#DejaVuSans-65" transform="translate(661.767578 0.015625)"/>
      <use xlink:href="#DejaVuSans-52" transform="translate(723.291016 0.015625)"/>
      <use xlink:href="#DejaVuSans-6f" transform="translate(792.773438 0.015625)"/>
      <use xlink:href="#DejaVuSans-6f" transform="translate(853.955078 0.015625)"/>
      <use xlink:href="#DejaVuSans-74" transform="translate(915.136719 0.015625)"/>
      <use xlink:href="#DejaVuSans-73" transform="translate(954.345703 0.015625)"/>
      <use xlink:href="#DejaVuSans-20" transform="translate(1006.445312 0.015625)"/>
      <use xlink:href="#DejaVuSans-28" transform="translate(1038.232422 0.015625)"/>
      <use xlink:href="#DejaVuSans-Oblique-70" transform="translate(1077.246094 0.015625)"/>
      <use xlink:href="#DejaVuSans-3d" transform="translate(1160.205078 0.015625)"/>
      <use xlink:href="#DejaVuSans-33" transform="translate(1263.476562 0.015625)"/>
      <use xlink:href="#DejaVuSans-29" transform="translate(1327.099609 0.015625)"/>
     </g>
    </g>
    <g id="line2d_47">
     <path d="M 57.806875 82.7 
L 77.806875 82.7 
L 97.806875 82.7 
" style="fill: none; stroke-dasharray: 6,12; stroke-dashoffset: 0; stroke: #9467bd; stroke-width: 1.5"/>
    </g>
    <g id="text_25">
     <!-- FRonUniformRoots ($p=$3) -->
     <g transform="translate(105.806875 86.2) scale(0.1 -0.1)">
      <defs>
       <path id="DejaVuSans-55" d="M 556 4666 
L 1191 4666 
L 1191 1831 
Q 1191 1081 1462 751 
Q 1734 422 2344 422 
Q 2950 422 3222 751 
Q 3494 1081 3494 1831 
L 3494 4666 
L 4128 4666 
L 4128 1753 
Q 4128 841 3676 375 
Q 3225 -91 2344 -91 
Q 1459 -91 1007 375 
Q 556 841 556 1753 
L 556 4666 
z
" transform="scale(0.015625)"/>
       <path id="DejaVuSans-69" d="M 603 3500 
L 1178 3500 
L 1178 0 
L 603 0 
L 603 3500 
z
M 603 4863 
L 1178 4863 
L 1178 4134 
L 603 4134 
L 603 4863 
z
" transform="scale(0.015625)"/>
       <path id="DejaVuSans-66" d="M 2375 4863 
L 2375 4384 
L 1825 4384 
Q 1516 4384 1395 4259 
Q 1275 4134 1275 3809 
L 1275 3500 
L 2222 3500 
L 2222 3053 
L 1275 3053 
L 1275 0 
L 697 0 
L 697 3053 
L 147 3053 
L 147 3500 
L 697 3500 
L 697 3744 
Q 697 4328 969 4595 
Q 1241 4863 1831 4863 
L 2375 4863 
z
" transform="scale(0.015625)"/>
       <path id="DejaVuSans-6d" d="M 3328 2828 
Q 3544 3216 3844 3400 
Q 4144 3584 4550 3584 
Q 5097 3584 5394 3201 
Q 5691 2819 5691 2113 
L 5691 0 
L 5113 0 
L 5113 2094 
Q 5113 2597 4934 2840 
Q 4756 3084 4391 3084 
Q 3944 3084 3684 2787 
Q 3425 2491 3425 1978 
L 3425 0 
L 2847 0 
L 2847 2094 
Q 2847 2600 2669 2842 
Q 2491 3084 2119 3084 
Q 1678 3084 1418 2786 
Q 1159 2488 1159 1978 
L 1159 0 
L 581 0 
L 581 3500 
L 1159 3500 
L 1159 2956 
Q 1356 3278 1631 3431 
Q 1906 3584 2284 3584 
Q 2666 3584 2933 3390 
Q 3200 3197 3328 2828 
z
" transform="scale(0.015625)"/>
      </defs>
      <use xlink:href="#DejaVuSans-46" transform="translate(0 0.015625)"/>
      <use xlink:href="#DejaVuSans-52" transform="translate(57.519531 0.015625)"/>
      <use xlink:href="#DejaVuSans-6f" transform="translate(127.001953 0.015625)"/>
      <use xlink:href="#DejaVuSans-6e" transform="translate(188.183594 0.015625)"/>
      <use xlink:href="#DejaVuSans-55" transform="translate(251.5625 0.015625)"/>
      <use xlink:href="#DejaVuSans-6e" transform="translate(324.755859 0.015625)"/>
      <use xlink:href="#DejaVuSans-69" transform="translate(388.134766 0.015625)"/>
      <use xlink:href="#DejaVuSans-66" transform="translate(415.917969 0.015625)"/>
      <use xlink:href="#DejaVuSans-6f" transform="translate(451.123047 0.015625)"/>
      <use xlink:href="#DejaVuSans-72" transform="translate(512.304688 0.015625)"/>
      <use xlink:href="#DejaVuSans-6d" transform="translate(553.417969 0.015625)"/>
      <use xlink:href="#DejaVuSans-52" transform="translate(650.830078 0.015625)"/>
      <use xlink:href="#DejaVuSans-6f" transform="translate(720.3125 0.015625)"/>
      <use xlink:href="#DejaVuSans-6f" transform="translate(781.494141 0.015625)"/>
      <use xlink:href="#DejaVuSans-74" transform="translate(842.675781 0.015625)"/>
      <use xlink:href="#DejaVuSans-73" transform="translate(881.884766 0.015625)"/>
      <use xlink:href="#DejaVuSans-20" transform="translate(933.984375 0.015625)"/>
      <use xlink:href="#DejaVuSans-28" transform="translate(965.771484 0.015625)"/>
      <use xlink:href="#DejaVuSans-Oblique-70" transform="translate(1004.785156 0.015625)"/>
      <use xlink:href="#DejaVuSans-3d" transform="translate(1087.744141 0.015625)"/>
      <use xlink:href="#DejaVuSans-33" transform="translate(1191.015625 0.015625)"/>
      <use xlink:href="#DejaVuSans-29" transform="translate(1254.638672 0.015625)"/>
     </g>
    </g>
    <g id="line2d_48">
     <path d="M 57.806875 97.398438 
L 77.806875 97.398438 
L 97.806875 97.398438 
" style="fill: none; stroke: #8c564b; stroke-width: 1.5; stroke-linecap: square"/>
    </g>
    <g id="text_26">
     <!-- Exact -->
     <g transform="translate(105.806875 100.898438) scale(0.1 -0.1)">
      <defs>
       <path id="DejaVuSans-45" d="M 628 4666 
L 3578 4666 
L 3578 4134 
L 1259 4134 
L 1259 2753 
L 3481 2753 
L 3481 2222 
L 1259 2222 
L 1259 531 
L 3634 531 
L 3634 0 
L 628 0 
L 628 4666 
z
" transform="scale(0.015625)"/>
       <path id="DejaVuSans-78" d="M 3513 3500 
L 2247 1797 
L 3578 0 
L 2900 0 
L 1881 1375 
L 863 0 
L 184 0 
L 1544 1831 
L 300 3500 
L 978 3500 
L 1906 2253 
L 2834 3500 
L 3513 3500 
z
" transform="scale(0.015625)"/>
       <path id="DejaVuSans-63" d="M 3122 3366 
L 3122 2828 
Q 2878 2963 2633 3030 
Q 2388 3097 2138 3097 
Q 1578 3097 1268 2742 
Q 959 2388 959 1747 
Q 959 1106 1268 751 
Q 1578 397 2138 397 
Q 2388 397 2633 464 
Q 2878 531 3122 666 
L 3122 134 
Q 2881 22 2623 -34 
Q 2366 -91 2075 -91 
Q 1284 -91 818 406 
Q 353 903 353 1747 
Q 353 2603 823 3093 
Q 1294 3584 2113 3584 
Q 2378 3584 2631 3529 
Q 2884 3475 3122 3366 
z
" transform="scale(0.015625)"/>
      </defs>
      <use xlink:href="#DejaVuSans-45"/>
      <use xlink:href="#DejaVuSans-78" x="63.183594"/>
      <use xlink:href="#DejaVuSans-61" x="122.363281"/>
      <use xlink:href="#DejaVuSans-63" x="183.642578"/>
      <use xlink:href="#DejaVuSans-74" x="238.623047"/>
     </g>
    </g>
   </g>
  </g>
  <g id="axes_2">
   <g id="patch_8">
    <path d="M 48.806875 606.04 
L 421.2 606.04 
L 421.2 329.4 
L 48.806875 329.4 
z
" style="fill: #ffffff"/>
   </g>
   <g id="matplotlib.axis_3">
    <g id="xtick_10">
     <g id="line2d_49">
      <path d="M 65.733835 606.04 
L 65.733835 329.4 
" clip-path="url(#pdcb5c6cd8f)" style="fill: none; stroke: #b0b0b0; stroke-width: 0.8; stroke-linecap: square"/>
     </g>
     <g id="line2d_50">
      <g>
       <use xlink:href="#m89fc939ff5" x="65.733835" y="606.04" style="stroke: #000000; stroke-width: 0.8"/>
      </g>
     </g>
     <g id="text_27">
      <!-- 0.0 -->
      <g transform="translate(57.782273 620.638438) scale(0.1 -0.1)">
       <use xlink:href="#DejaVuSans-30"/>
       <use xlink:href="#DejaVuSans-2e" x="63.623047"/>
       <use xlink:href="#DejaVuSans-30" x="95.410156"/>
      </g>
     </g>
    </g>
    <g id="xtick_11">
     <g id="line2d_51">
      <path d="M 108.051236 606.04 
L 108.051236 329.4 
" clip-path="url(#pdcb5c6cd8f)" style="fill: none; stroke: #b0b0b0; stroke-width: 0.8; stroke-linecap: square"/>
     </g>
     <g id="line2d_52">
      <g>
       <use xlink:href="#m89fc939ff5" x="108.051236" y="606.04" style="stroke: #000000; stroke-width: 0.8"/>
      </g>
     </g>
     <g id="text_28">
      <!-- 0.5 -->
      <g transform="translate(100.099673 620.638438) scale(0.1 -0.1)">
       <use xlink:href="#DejaVuSans-30"/>
       <use xlink:href="#DejaVuSans-2e" x="63.623047"/>
       <use xlink:href="#DejaVuSans-35" x="95.410156"/>
      </g>
     </g>
    </g>
    <g id="xtick_12">
     <g id="line2d_53">
      <path d="M 150.368636 606.04 
L 150.368636 329.4 
" clip-path="url(#pdcb5c6cd8f)" style="fill: none; stroke: #b0b0b0; stroke-width: 0.8; stroke-linecap: square"/>
     </g>
     <g id="line2d_54">
      <g>
       <use xlink:href="#m89fc939ff5" x="150.368636" y="606.04" style="stroke: #000000; stroke-width: 0.8"/>
      </g>
     </g>
     <g id="text_29">
      <!-- 1.0 -->
      <g transform="translate(142.417074 620.638438) scale(0.1 -0.1)">
       <use xlink:href="#DejaVuSans-31"/>
       <use xlink:href="#DejaVuSans-2e" x="63.623047"/>
       <use xlink:href="#DejaVuSans-30" x="95.410156"/>
      </g>
     </g>
    </g>
    <g id="xtick_13">
     <g id="line2d_55">
      <path d="M 192.686037 606.04 
L 192.686037 329.4 
" clip-path="url(#pdcb5c6cd8f)" style="fill: none; stroke: #b0b0b0; stroke-width: 0.8; stroke-linecap: square"/>
     </g>
     <g id="line2d_56">
      <g>
       <use xlink:href="#m89fc939ff5" x="192.686037" y="606.04" style="stroke: #000000; stroke-width: 0.8"/>
      </g>
     </g>
     <g id="text_30">
      <!-- 1.5 -->
      <g transform="translate(184.734474 620.638438) scale(0.1 -0.1)">
       <use xlink:href="#DejaVuSans-31"/>
       <use xlink:href="#DejaVuSans-2e" x="63.623047"/>
       <use xlink:href="#DejaVuSans-35" x="95.410156"/>
      </g>
     </g>
    </g>
    <g id="xtick_14">
     <g id="line2d_57">
      <path d="M 235.003438 606.04 
L 235.003438 329.4 
" clip-path="url(#pdcb5c6cd8f)" style="fill: none; stroke: #b0b0b0; stroke-width: 0.8; stroke-linecap: square"/>
     </g>
     <g id="line2d_58">
      <g>
       <use xlink:href="#m89fc939ff5" x="235.003438" y="606.04" style="stroke: #000000; stroke-width: 0.8"/>
      </g>
     </g>
     <g id="text_31">
      <!-- 2.0 -->
      <g transform="translate(227.051875 620.638438) scale(0.1 -0.1)">
       <use xlink:href="#DejaVuSans-32"/>
       <use xlink:href="#DejaVuSans-2e" x="63.623047"/>
       <use xlink:href="#DejaVuSans-30" x="95.410156"/>
      </g>
     </g>
    </g>
    <g id="xtick_15">
     <g id="line2d_59">
      <path d="M 277.320838 606.04 
L 277.320838 329.4 
" clip-path="url(#pdcb5c6cd8f)" style="fill: none; stroke: #b0b0b0; stroke-width: 0.8; stroke-linecap: square"/>
     </g>
     <g id="line2d_60">
      <g>
       <use xlink:href="#m89fc939ff5" x="277.320838" y="606.04" style="stroke: #000000; stroke-width: 0.8"/>
      </g>
     </g>
     <g id="text_32">
      <!-- 2.5 -->
      <g transform="translate(269.369276 620.638438) scale(0.1 -0.1)">
       <use xlink:href="#DejaVuSans-32"/>
       <use xlink:href="#DejaVuSans-2e" x="63.623047"/>
       <use xlink:href="#DejaVuSans-35" x="95.410156"/>
      </g>
     </g>
    </g>
    <g id="xtick_16">
     <g id="line2d_61">
      <path d="M 319.638239 606.04 
L 319.638239 329.4 
" clip-path="url(#pdcb5c6cd8f)" style="fill: none; stroke: #b0b0b0; stroke-width: 0.8; stroke-linecap: square"/>
     </g>
     <g id="line2d_62">
      <g>
       <use xlink:href="#m89fc939ff5" x="319.638239" y="606.04" style="stroke: #000000; stroke-width: 0.8"/>
      </g>
     </g>
     <g id="text_33">
      <!-- 3.0 -->
      <g transform="translate(311.686676 620.638438) scale(0.1 -0.1)">
       <use xlink:href="#DejaVuSans-33"/>
       <use xlink:href="#DejaVuSans-2e" x="63.623047"/>
       <use xlink:href="#DejaVuSans-30" x="95.410156"/>
      </g>
     </g>
    </g>
    <g id="xtick_17">
     <g id="line2d_63">
      <path d="M 361.955639 606.04 
L 361.955639 329.4 
" clip-path="url(#pdcb5c6cd8f)" style="fill: none; stroke: #b0b0b0; stroke-width: 0.8; stroke-linecap: square"/>
     </g>
     <g id="line2d_64">
      <g>
       <use xlink:href="#m89fc939ff5" x="361.955639" y="606.04" style="stroke: #000000; stroke-width: 0.8"/>
      </g>
     </g>
     <g id="text_34">
      <!-- 3.5 -->
      <g transform="translate(354.004077 620.638438) scale(0.1 -0.1)">
       <use xlink:href="#DejaVuSans-33"/>
       <use xlink:href="#DejaVuSans-2e" x="63.623047"/>
       <use xlink:href="#DejaVuSans-35" x="95.410156"/>
      </g>
     </g>
    </g>
    <g id="xtick_18">
     <g id="line2d_65">
      <path d="M 404.27304 606.04 
L 404.27304 329.4 
" clip-path="url(#pdcb5c6cd8f)" style="fill: none; stroke: #b0b0b0; stroke-width: 0.8; stroke-linecap: square"/>
     </g>
     <g id="line2d_66">
      <g>
       <use xlink:href="#m89fc939ff5" x="404.27304" y="606.04" style="stroke: #000000; stroke-width: 0.8"/>
      </g>
     </g>
     <g id="text_35">
      <!-- 4.0 -->
      <g transform="translate(396.321477 620.638438) scale(0.1 -0.1)">
       <use xlink:href="#DejaVuSans-34"/>
       <use xlink:href="#DejaVuSans-2e" x="63.623047"/>
       <use xlink:href="#DejaVuSans-30" x="95.410156"/>
      </g>
     </g>
    </g>
    <g id="text_36">
     <!-- $\kappa h\,/\,$$\pi$ -->
     <g transform="translate(222.553438 634.316563) scale(0.1 -0.1)">
      <use xlink:href="#DejaVuSans-Oblique-3ba" transform="translate(0 0.015625)"/>
      <use xlink:href="#DejaVuSans-Oblique-68" transform="translate(58.935547 0.015625)"/>
      <use xlink:href="#DejaVuSans-2f" transform="translate(138.550129 0.015625)"/>
      <use xlink:href="#DejaVuSans-Oblique-3c0" transform="translate(188.477212 0.015625)"/>
     </g>
    </g>
   </g>
   <g id="matplotlib.axis_4">
    <g id="ytick_10">
     <g id="line2d_67">
      <path d="M 48.806875 589.430898 
L 421.2 589.430898 
" clip-path="url(#pdcb5c6cd8f)" style="fill: none; stroke: #b0b0b0; stroke-width: 0.8; stroke-linecap: square"/>
     </g>
     <g id="line2d_68">
      <g>
       <use xlink:href="#me3ce86ea73" x="48.806875" y="589.430898" style="stroke: #000000; stroke-width: 0.8"/>
      </g>
     </g>
     <g id="text_37">
      <!-- 6 -->
      <g transform="translate(27.064688 593.230117) scale(0.1 -0.1)">
       <defs>
        <path id="DejaVuSans-2212" d="M 678 2272 
L 4684 2272 
L 4684 1741 
L 678 1741 
L 678 2272 
z
" transform="scale(0.015625)"/>
        <path id="DejaVuSans-36" d="M 2113 2584 
Q 1688 2584 1439 2293 
Q 1191 2003 1191 1497 
Q 1191 994 1439 701 
Q 1688 409 2113 409 
Q 2538 409 2786 701 
Q 3034 994 3034 1497 
Q 3034 2003 2786 2293 
Q 2538 2584 2113 2584 
z
M 3366 4563 
L 3366 3988 
Q 3128 4100 2886 4159 
Q 2644 4219 2406 4219 
Q 1781 4219 1451 3797 
Q 1122 3375 1075 2522 
Q 1259 2794 1537 2939 
Q 1816 3084 2150 3084 
Q 2853 3084 3261 2657 
Q 3669 2231 3669 1497 
Q 3669 778 3244 343 
Q 2819 -91 2113 -91 
Q 1303 -91 875 529 
Q 447 1150 447 2328 
Q 447 3434 972 4092 
Q 1497 4750 2381 4750 
Q 2619 4750 2861 4703 
Q 3103 4656 3366 4563 
z
" transform="scale(0.015625)"/>
       </defs>
       <use xlink:href="#DejaVuSans-2212"/>
       <use xlink:href="#DejaVuSans-36" x="83.789062"/>
      </g>
     </g>
    </g>
    <g id="ytick_11">
     <g id="line2d_69">
      <path d="M 48.806875 548.188173 
L 421.2 548.188173 
" clip-path="url(#pdcb5c6cd8f)" style="fill: none; stroke: #b0b0b0; stroke-width: 0.8; stroke-linecap: square"/>
     </g>
     <g id="line2d_70">
      <g>
       <use xlink:href="#me3ce86ea73" x="48.806875" y="548.188173" style="stroke: #000000; stroke-width: 0.8"/>
      </g>
     </g>
     <g id="text_38">
      <!-- 5 -->
      <g transform="translate(27.064688 551.987391) scale(0.1 -0.1)">
       <use xlink:href="#DejaVuSans-2212"/>
       <use xlink:href="#DejaVuSans-35" x="83.789062"/>
      </g>
     </g>
    </g>
    <g id="ytick_12">
     <g id="line2d_71">
      <path d="M 48.806875 506.945447 
L 421.2 506.945447 
" clip-path="url(#pdcb5c6cd8f)" style="fill: none; stroke: #b0b0b0; stroke-width: 0.8; stroke-linecap: square"/>
     </g>
     <g id="line2d_72">
      <g>
       <use xlink:href="#me3ce86ea73" x="48.806875" y="506.945447" style="stroke: #000000; stroke-width: 0.8"/>
      </g>
     </g>
     <g id="text_39">
      <!-- 4 -->
      <g transform="translate(27.064688 510.744666) scale(0.1 -0.1)">
       <use xlink:href="#DejaVuSans-2212"/>
       <use xlink:href="#DejaVuSans-34" x="83.789062"/>
      </g>
     </g>
    </g>
    <g id="ytick_13">
     <g id="line2d_73">
      <path d="M 48.806875 465.702722 
L 421.2 465.702722 
" clip-path="url(#pdcb5c6cd8f)" style="fill: none; stroke: #b0b0b0; stroke-width: 0.8; stroke-linecap: square"/>
     </g>
     <g id="line2d_74">
      <g>
       <use xlink:href="#me3ce86ea73" x="48.806875" y="465.702722" style="stroke: #000000; stroke-width: 0.8"/>
      </g>
     </g>
     <g id="text_40">
      <!-- 3 -->
      <g transform="translate(27.064688 469.501941) scale(0.1 -0.1)">
       <use xlink:href="#DejaVuSans-2212"/>
       <use xlink:href="#DejaVuSans-33" x="83.789062"/>
      </g>
     </g>
    </g>
    <g id="ytick_14">
     <g id="line2d_75">
      <path d="M 48.806875 424.459996 
L 421.2 424.459996 
" clip-path="url(#pdcb5c6cd8f)" style="fill: none; stroke: #b0b0b0; stroke-width: 0.8; stroke-linecap: square"/>
     </g>
     <g id="line2d_76">
      <g>
       <use xlink:href="#me3ce86ea73" x="48.806875" y="424.459996" style="stroke: #000000; stroke-width: 0.8"/>
      </g>
     </g>
     <g id="text_41">
      <!-- 2 -->
      <g transform="translate(27.064688 428.259215) scale(0.1 -0.1)">
       <use xlink:href="#DejaVuSans-2212"/>
       <use xlink:href="#DejaVuSans-32" x="83.789062"/>
      </g>
     </g>
    </g>
    <g id="ytick_15">
     <g id="line2d_77">
      <path d="M 48.806875 383.217271 
L 421.2 383.217271 
" clip-path="url(#pdcb5c6cd8f)" style="fill: none; stroke: #b0b0b0; stroke-width: 0.8; stroke-linecap: square"/>
     </g>
     <g id="line2d_78">
      <g>
       <use xlink:href="#me3ce86ea73" x="48.806875" y="383.217271" style="stroke: #000000; stroke-width: 0.8"/>
      </g>
     </g>
     <g id="text_42">
      <!-- 1 -->
      <g transform="translate(27.064688 387.01649) scale(0.1 -0.1)">
       <use xlink:href="#DejaVuSans-2212"/>
       <use xlink:href="#DejaVuSans-31" x="83.789062"/>
      </g>
     </g>
    </g>
    <g id="ytick_16">
     <g id="line2d_79">
      <path d="M 48.806875 341.974545 
L 421.2 341.974545 
" clip-path="url(#pdcb5c6cd8f)" style="fill: none; stroke: #b0b0b0; stroke-width: 0.8; stroke-linecap: square"/>
     </g>
     <g id="line2d_80">
      <g>
       <use xlink:href="#me3ce86ea73" x="48.806875" y="341.974545" style="stroke: #000000; stroke-width: 0.8"/>
      </g>
     </g>
     <g id="text_43">
      <!-- 0 -->
      <g transform="translate(35.444375 345.773764) scale(0.1 -0.1)">
       <use xlink:href="#DejaVuSans-30"/>
      </g>
     </g>
    </g>
    <g id="text_44">
     <!-- $\Im(\tilde{\kappa}h)\,/\,$$\pi$ -->
     <g transform="translate(20.985 487.57) rotate(-90) scale(0.1 -0.1)">
      <defs>
       <path id="DejaVuSans-Oblique-2111" d="M 331 281 
L 769 797 
Q 1116 919 1481 919 
Q 1659 919 2072 669 
Q 2522 400 2625 400 
Q 3003 400 3316 828 
Q 3538 1131 3538 1366 
Q 3538 1759 3344 2109 
Q 3094 2566 3094 2906 
Q 3094 3219 3344 3719 
L 4009 4156 
Q 3759 3722 3759 3344 
Q 3759 3009 4009 2547 
Q 4175 2241 4175 1653 
Q 4175 1359 3544 603 
Q 2963 -91 2206 -91 
Q 2038 -91 1634 156 
Q 1219 406 1044 406 
Q 750 406 331 281 
z
M 1094 4575 
Q 1434 4750 1875 4750 
Q 2259 4750 2656 4597 
Q 3038 4450 3438 4450 
Q 3828 4450 4219 4631 
L 3594 4100 
Q 3159 3919 2813 3919 
Q 2366 3919 2031 4072 
Q 1697 4225 1250 4225 
Q 869 4225 469 4044 
L 1094 4575 
z
" transform="scale(0.015625)"/>
      </defs>
      <use xlink:href="#DejaVuSans-Oblique-2111" transform="translate(0 0.046875)"/>
      <use xlink:href="#DejaVuSans-28" transform="translate(69.726562 0.046875)"/>
      <use xlink:href="#DejaVuSans-303" transform="translate(170.708496 3.3125)"/>
      <use xlink:href="#DejaVuSans-Oblique-3ba" transform="translate(108.740234 0.046875)"/>
      <use xlink:href="#DejaVuSans-Oblique-68" transform="translate(167.675781 0.046875)"/>
      <use xlink:href="#DejaVuSans-29" transform="translate(231.054688 0.046875)"/>
      <use xlink:href="#DejaVuSans-2f" transform="translate(286.304036 0.046875)"/>
      <use xlink:href="#DejaVuSans-Oblique-3c0" transform="translate(336.231118 0.046875)"/>
     </g>
    </g>
   </g>
   <g id="line2d_81">
    <path d="M 65.733835 341.974545 
L 72.642799 341.974545 
L 79.551762 341.974545 
L 86.460725 341.974547 
L 93.369689 341.974556 
L 100.278652 341.974609 
L 107.187615 341.974811 
L 114.096579 341.975424 
L 121.005542 341.976997 
L 127.914505 341.980544 
L 134.823469 341.987757 
L 141.732432 342.001244 
L 148.641396 342.024751 
L 155.550359 342.063375 
L 162.459322 342.123719 
L 169.368286 342.214034 
L 176.277249 342.344346 
L 183.186212 342.526607 
L 190.095176 342.774938 
L 197.004139 343.105979 
L 203.913102 343.539404 
L 210.822066 344.098625 
L 217.731029 344.811728 
L 224.639992 345.712642 
L 231.548956 346.842597 
L 238.457919 348.251847 
L 245.366883 350.001683 
L 252.275846 352.166646 
L 259.184809 354.836835 
L 266.093773 358.120008 
L 273.002736 362.143039 
L 279.911699 367.051993 
L 286.820663 373.009811 
L 293.729626 380.190354 
L 300.638589 388.76752 
L 307.547553 398.898482 
L 314.456516 410.701037 
L 321.365479 424.226542 
L 328.274443 439.43166 
L 335.183406 456.153591 
L 342.09237 474.093941 
L 349.001333 492.815549 
L 355.910296 511.754623 
L 362.81926 530.248028 
L 369.728223 547.573247 
L 376.637186 562.996881 
L 383.54615 575.826717 
L 390.455113 585.462331 
L 397.364076 591.43962 
L 404.27304 593.465455 
" clip-path="url(#pdcb5c6cd8f)" style="fill: none; stroke-dasharray: 1.5,1.5; stroke-dashoffset: 0; stroke: #1f77b4; stroke-width: 1.5"/>
   </g>
   <g id="line2d_82">
    <path d="M 65.733835 341.974545 
L 72.642799 341.974545 
L 79.551762 341.974545 
L 86.460725 341.974547 
L 93.369689 341.974556 
L 100.278652 341.974609 
L 107.187615 341.974811 
L 114.096579 341.975424 
L 121.005542 341.976997 
L 127.914505 341.980544 
L 134.823469 341.987757 
L 141.732432 342.001244 
L 148.641396 342.024751 
L 155.550359 342.063375 
L 162.459322 342.123719 
L 169.368286 342.214034 
L 176.277249 342.344346 
L 183.186212 342.526607 
L 190.095176 342.774938 
L 197.004139 343.105979 
L 203.913102 343.539404 
L 210.822066 344.098625 
L 217.731029 344.811728 
L 224.639992 345.712642 
L 231.548956 346.842597 
L 238.457919 348.251847 
L 245.366883 350.001683 
L 252.275846 352.166646 
L 259.184809 354.836835 
L 266.093773 358.120008 
L 273.002736 362.143039 
L 279.911699 367.051993 
L 286.820663 373.009811 
L 293.729626 380.190354 
L 300.638589 388.76752 
L 307.547553 398.898482 
L 314.456516 410.701037 
L 321.365479 424.226542 
L 328.274443 439.43166 
L 335.183406 456.153591 
L 342.09237 474.093941 
L 349.001333 492.815549 
L 355.910296 511.754623 
L 362.81926 530.248028 
L 369.728223 547.573247 
L 376.637186 562.996881 
L 383.54615 575.826717 
L 390.455113 585.462331 
L 397.364076 591.43962 
L 404.27304 593.465455 
" clip-path="url(#pdcb5c6cd8f)" style="fill: none; stroke-dasharray: 1.5,6; stroke-dashoffset: 0; stroke: #ff7f0e; stroke-width: 1.5"/>
   </g>
   <g id="line2d_83">
    <path d="M 65.733835 341.974545 
L 72.642799 341.974545 
L 79.551762 341.974546 
L 86.460725 341.974552 
L 93.369689 341.974605 
L 100.278652 341.974889 
L 107.187615 341.975974 
L 114.096579 341.979252 
L 121.005542 341.987582 
L 127.914505 342.006088 
L 134.823469 342.042956 
L 141.732432 342.110018 
L 148.641396 342.222942 
L 155.550359 342.400958 
L 162.459322 342.666238 
L 169.368286 343.043155 
L 176.277249 343.557623 
L 183.186212 344.236637 
L 190.095176 345.107984 
L 197.004139 346.200038 
L 203.913102 347.54152 
L 210.822066 349.161122 
L 217.731029 351.086927 
L 224.639992 353.3456 
L 231.548956 355.961371 
L 238.457919 358.954848 
L 245.366883 362.341746 
L 252.275846 366.131611 
L 259.184809 370.326624 
L 266.093773 374.920563 
L 273.002736 379.897954 
L 279.911699 385.233422 
L 286.820663 390.891252 
L 293.729626 396.825176 
L 300.638589 402.978467 
L 307.547553 409.284463 
L 314.456516 415.667695 
L 321.365479 422.045654 
L 328.274443 428.33112 
L 335.183406 434.434776 
L 342.09237 440.267827 
L 349.001333 445.744359 
L 355.910296 450.783345 
L 362.81926 455.310268 
L 369.728223 459.258424 
L 376.637186 462.569936 
L 383.54615 465.196544 
L 390.455113 467.100186 
L 397.364076 468.253419 
L 404.27304 468.639675 
" clip-path="url(#pdcb5c6cd8f)" style="fill: none; stroke-dasharray: 6,6; stroke-dashoffset: 0; stroke: #2ca02c; stroke-width: 1.5"/>
   </g>
   <g id="line2d_84">
    <path d="M 65.733835 341.974545 
L 72.642799 341.974545 
L 79.551762 341.974546 
L 86.460725 341.974552 
L 93.369689 341.974605 
L 100.278652 341.974889 
L 107.187615 341.975974 
L 114.096579 341.979252 
L 121.005542 341.987582 
L 127.914505 342.006088 
L 134.823469 342.042956 
L 141.732432 342.110018 
L 148.641396 342.222942 
L 155.550359 342.400958 
L 162.459322 342.666238 
L 169.368286 343.043155 
L 176.277249 343.557623 
L 183.186212 344.236637 
L 190.095176 345.107984 
L 197.004139 346.200038 
L 203.913102 347.54152 
L 210.822066 349.161122 
L 217.731029 351.086927 
L 224.639992 353.3456 
L 231.548956 355.961371 
L 238.457919 358.954848 
L 245.366883 362.341746 
L 252.275846 366.131611 
L 259.184809 370.326624 
L 266.093773 374.920563 
L 273.002736 379.897954 
L 279.911699 385.233422 
L 286.820663 390.891252 
L 293.729626 396.825176 
L 300.638589 402.978467 
L 307.547553 409.284463 
L 314.456516 415.667695 
L 321.365479 422.045654 
L 328.274443 428.33112 
L 335.183406 434.434776 
L 342.09237 440.267827 
L 349.001333 445.744359 
L 355.910296 450.783345 
L 362.81926 455.310268 
L 369.728223 459.258424 
L 376.637186 462.569936 
L 383.54615 465.196544 
L 390.455113 467.100186 
L 397.364076 468.253419 
L 404.27304 468.639675 
" clip-path="url(#pdcb5c6cd8f)" style="fill: none; stroke-dasharray: 6,1.5; stroke-dashoffset: 0; stroke: #d62728; stroke-width: 1.5"/>
   </g>
   <g id="line2d_85">
    <path d="M 65.733835 341.974545 
L 72.642799 341.974545 
L 79.551762 341.974546 
L 86.460725 341.974552 
L 93.369689 341.974605 
L 100.278652 341.974889 
L 107.187615 341.975974 
L 114.096579 341.979252 
L 121.005542 341.987582 
L 127.914505 342.006088 
L 134.823469 342.042956 
L 141.732432 342.110018 
L 148.641396 342.222942 
L 155.550359 342.400958 
L 162.459322 342.666238 
L 169.368286 343.043155 
L 176.277249 343.557623 
L 183.186212 344.236637 
L 190.095176 345.107984 
L 197.004139 346.200038 
L 203.913102 347.54152 
L 210.822066 349.161122 
L 217.731029 351.086927 
L 224.639992 353.3456 
L 231.548956 355.961371 
L 238.457919 358.954848 
L 245.366883 362.341746 
L 252.275846 366.131611 
L 259.184809 370.326624 
L 266.093773 374.920563 
L 273.002736 379.897954 
L 279.911699 385.233422 
L 286.820663 390.891252 
L 293.729626 396.825176 
L 300.638589 402.978467 
L 307.547553 409.284463 
L 314.456516 415.667695 
L 321.365479 422.045654 
L 328.274443 428.33112 
L 335.183406 434.434776 
L 342.09237 440.267827 
L 349.001333 445.744359 
L 355.910296 450.783345 
L 362.81926 455.310268 
L 369.728223 459.258424 
L 376.637186 462.569936 
L 383.54615 465.196544 
L 390.455113 467.100186 
L 397.364076 468.253419 
L 404.27304 468.639675 
" clip-path="url(#pdcb5c6cd8f)" style="fill: none; stroke-dasharray: 6,12; stroke-dashoffset: 0; stroke: #9467bd; stroke-width: 1.5"/>
   </g>
   <g id="line2d_86">
    <path d="M 65.733835 341.974545 
L 404.27304 341.974545 
" clip-path="url(#pdcb5c6cd8f)" style="fill: none; stroke: #8c564b; stroke-width: 1.5; stroke-linecap: square"/>
   </g>
   <g id="patch_9">
    <path d="M 48.806875 606.04 
L 48.806875 329.4 
" style="fill: none; stroke: #000000; stroke-width: 0.8; stroke-linejoin: miter; stroke-linecap: square"/>
   </g>
   <g id="patch_10">
    <path d="M 421.2 606.04 
L 421.2 329.4 
" style="fill: none; stroke: #000000; stroke-width: 0.8; stroke-linejoin: miter; stroke-linecap: square"/>
   </g>
   <g id="patch_11">
    <path d="M 48.806875 606.04 
L 421.2 606.04 
" style="fill: none; stroke: #000000; stroke-width: 0.8; stroke-linejoin: miter; stroke-linecap: square"/>
   </g>
   <g id="patch_12">
    <path d="M 48.806875 329.4 
L 421.2 329.4 
" style="fill: none; stroke: #000000; stroke-width: 0.8; stroke-linejoin: miter; stroke-linecap: square"/>
   </g>
   <g id="legend_2">
    <g id="patch_13">
     <path d="M 55.806875 601.04 
L 247.206875 601.04 
Q 249.206875 601.04 249.206875 599.04 
L 249.206875 511.861875 
Q 249.206875 509.861875 247.206875 509.861875 
L 55.806875 509.861875 
Q 53.806875 509.861875 53.806875 511.861875 
L 53.806875 599.04 
Q 53.806875 601.04 55.806875 601.04 
z
" style="fill: #ffffff; opacity: 0.8; stroke: #cccccc; stroke-linejoin: miter"/>
    </g>
    <g id="line2d_87">
     <path d="M 57.806875 517.961875 
L 77.806875 517.961875 
L 97.806875 517.961875 
" style="fill: none; stroke-dasharray: 1.5,1.5; stroke-dashoffset: 0; stroke: #1f77b4; stroke-width: 1.5"/>
    </g>
    <g id="text_45">
     <!-- LegendreDG ($p=$3) -->
     <g transform="translate(105.806875 521.461875) scale(0.1 -0.1)">
      <use xlink:href="#DejaVuSans-4c" transform="translate(0 0.015625)"/>
      <use xlink:href="#DejaVuSans-65" transform="translate(55.712891 0.015625)"/>
      <use xlink:href="#DejaVuSans-67" transform="translate(117.236328 0.015625)"/>
      <use xlink:href="#DejaVuSans-65" transform="translate(180.712891 0.015625)"/>
      <use xlink:href="#DejaVuSans-6e" transform="translate(242.236328 0.015625)"/>
      <use xlink:href="#DejaVuSans-64" transform="translate(305.615234 0.015625)"/>
      <use xlink:href="#DejaVuSans-72" transform="translate(369.091797 0.015625)"/>
      <use xlink:href="#DejaVuSans-65" transform="translate(410.205078 0.015625)"/>
      <use xlink:href="#DejaVuSans-44" transform="translate(471.728516 0.015625)"/>
      <use xlink:href="#DejaVuSans-47" transform="translate(548.730469 0.015625)"/>
      <use xlink:href="#DejaVuSans-20" transform="translate(626.220703 0.015625)"/>
      <use xlink:href="#DejaVuSans-28" transform="translate(658.007812 0.015625)"/>
      <use xlink:href="#DejaVuSans-Oblique-70" transform="translate(697.021484 0.015625)"/>
      <use xlink:href="#DejaVuSans-3d" transform="translate(779.980469 0.015625)"/>
      <use xlink:href="#DejaVuSans-33" transform="translate(883.251953 0.015625)"/>
      <use xlink:href="#DejaVuSans-29" transform="translate(946.875 0.015625)"/>
     </g>
    </g>
    <g id="line2d_88">
     <path d="M 57.806875 532.661875 
L 77.806875 532.661875 
L 97.806875 532.661875 
" style="fill: none; stroke-dasharray: 1.5,6; stroke-dashoffset: 0; stroke: #ff7f0e; stroke-width: 1.5"/>
    </g>
    <g id="text_46">
     <!-- DGonLegendreRoots ($p=$3) -->
     <g transform="translate(105.806875 536.161875) scale(0.1 -0.1)">
      <use xlink:href="#DejaVuSans-44" transform="translate(0 0.015625)"/>
      <use xlink:href="#DejaVuSans-47" transform="translate(77.001953 0.015625)"/>
      <use xlink:href="#DejaVuSans-6f" transform="translate(154.492188 0.015625)"/>
      <use xlink:href="#DejaVuSans-6e" transform="translate(215.673828 0.015625)"/>
      <use xlink:href="#DejaVuSans-4c" transform="translate(279.052734 0.015625)"/>
      <use xlink:href="#DejaVuSans-65" transform="translate(334.765625 0.015625)"/>
      <use xlink:href="#DejaVuSans-67" transform="translate(396.289062 0.015625)"/>
      <use xlink:href="#DejaVuSans-65" transform="translate(459.765625 0.015625)"/>
      <use xlink:href="#DejaVuSans-6e" transform="translate(521.289062 0.015625)"/>
      <use xlink:href="#DejaVuSans-64" transform="translate(584.667969 0.015625)"/>
      <use xlink:href="#DejaVuSans-72" transform="translate(648.144531 0.015625)"/>
      <use xlink:href="#DejaVuSans-65" transform="translate(689.257812 0.015625)"/>
      <use xlink:href="#DejaVuSans-52" transform="translate(750.78125 0.015625)"/>
      <use xlink:href="#DejaVuSans-6f" transform="translate(820.263672 0.015625)"/>
      <use xlink:href="#DejaVuSans-6f" transform="translate(881.445312 0.015625)"/>
      <use xlink:href="#DejaVuSans-74" transform="translate(942.626953 0.015625)"/>
      <use xlink:href="#DejaVuSans-73" transform="translate(981.835938 0.015625)"/>
      <use xlink:href="#DejaVuSans-20" transform="translate(1033.935547 0.015625)"/>
      <use xlink:href="#DejaVuSans-28" transform="translate(1065.722656 0.015625)"/>
      <use xlink:href="#DejaVuSans-Oblique-70" transform="translate(1104.736328 0.015625)"/>
      <use xlink:href="#DejaVuSans-3d" transform="translate(1187.695312 0.015625)"/>
      <use xlink:href="#DejaVuSans-33" transform="translate(1290.966797 0.015625)"/>
      <use xlink:href="#DejaVuSans-29" transform="translate(1354.589844 0.015625)"/>
     </g>
    </g>
    <g id="line2d_89">
     <path d="M 57.806875 547.361875 
L 77.806875 547.361875 
L 97.806875 547.361875 
" style="fill: none; stroke-dasharray: 6,6; stroke-dashoffset: 0; stroke: #2ca02c; stroke-width: 1.5"/>
    </g>
    <g id="text_47">
     <!-- DGonLobattoRoots ($p=$3) -->
     <g transform="translate(105.806875 550.861875) scale(0.1 -0.1)">
      <use xlink:href="#DejaVuSans-44" transform="translate(0 0.015625)"/>
      <use xlink:href="#DejaVuSans-47" transform="translate(77.001953 0.015625)"/>
      <use xlink:href="#DejaVuSans-6f" transform="translate(154.492188 0.015625)"/>
      <use xlink:href="#DejaVuSans-6e" transform="translate(215.673828 0.015625)"/>
      <use xlink:href="#DejaVuSans-4c" transform="translate(279.052734 0.015625)"/>
      <use xlink:href="#DejaVuSans-6f" transform="translate(334.765625 0.015625)"/>
      <use xlink:href="#DejaVuSans-62" transform="translate(395.947266 0.015625)"/>
      <use xlink:href="#DejaVuSans-61" transform="translate(459.423828 0.015625)"/>
      <use xlink:href="#DejaVuSans-74" transform="translate(520.703125 0.015625)"/>
      <use xlink:href="#DejaVuSans-74" transform="translate(559.912109 0.015625)"/>
      <use xlink:href="#DejaVuSans-6f" transform="translate(599.121094 0.015625)"/>
      <use xlink:href="#DejaVuSans-52" transform="translate(660.302734 0.015625)"/>
      <use xlink:href="#DejaVuSans-6f" transform="translate(729.785156 0.015625)"/>
      <use xlink:href="#DejaVuSans-6f" transform="translate(790.966797 0.015625)"/>
      <use xlink:href="#DejaVuSans-74" transform="translate(852.148438 0.015625)"/>
      <use xlink:href="#DejaVuSans-73" transform="translate(891.357422 0.015625)"/>
      <use xlink:href="#DejaVuSans-20" transform="translate(943.457031 0.015625)"/>
      <use xlink:href="#DejaVuSans-28" transform="translate(975.244141 0.015625)"/>
      <use xlink:href="#DejaVuSans-Oblique-70" transform="translate(1014.257812 0.015625)"/>
      <use xlink:href="#DejaVuSans-3d" transform="translate(1097.216797 0.015625)"/>
      <use xlink:href="#DejaVuSans-33" transform="translate(1200.488281 0.015625)"/>
      <use xlink:href="#DejaVuSans-29" transform="translate(1264.111328 0.015625)"/>
     </g>
    </g>
    <g id="line2d_90">
     <path d="M 57.806875 562.061875 
L 77.806875 562.061875 
L 97.806875 562.061875 
" style="fill: none; stroke-dasharray: 6,1.5; stroke-dashoffset: 0; stroke: #d62728; stroke-width: 1.5"/>
    </g>
    <g id="text_48">
     <!-- FRonLegendreRoots ($p=$3) -->
     <g transform="translate(105.806875 565.561875) scale(0.1 -0.1)">
      <use xlink:href="#DejaVuSans-46" transform="translate(0 0.015625)"/>
      <use xlink:href="#DejaVuSans-52" transform="translate(57.519531 0.015625)"/>
      <use xlink:href="#DejaVuSans-6f" transform="translate(127.001953 0.015625)"/>
      <use xlink:href="#DejaVuSans-6e" transform="translate(188.183594 0.015625)"/>
      <use xlink:href="#DejaVuSans-4c" transform="translate(251.5625 0.015625)"/>
      <use xlink:href="#DejaVuSans-65" transform="translate(307.275391 0.015625)"/>
      <use xlink:href="#DejaVuSans-67" transform="translate(368.798828 0.015625)"/>
      <use xlink:href="#DejaVuSans-65" transform="translate(432.275391 0.015625)"/>
      <use xlink:href="#DejaVuSans-6e" transform="translate(493.798828 0.015625)"/>
      <use xlink:href="#DejaVuSans-64" transform="translate(557.177734 0.015625)"/>
      <use xlink:href="#DejaVuSans-72" transform="translate(620.654297 0.015625)"/>
      <use xlink:href="#DejaVuSans-65" transform="translate(661.767578 0.015625)"/>
      <use xlink:href="#DejaVuSans-52" transform="translate(723.291016 0.015625)"/>
      <use xlink:href="#DejaVuSans-6f" transform="translate(792.773438 0.015625)"/>
      <use xlink:href="#DejaVuSans-6f" transform="translate(853.955078 0.015625)"/>
      <use xlink:href="#DejaVuSans-74" transform="translate(915.136719 0.015625)"/>
      <use xlink:href="#DejaVuSans-73" transform="translate(954.345703 0.015625)"/>
      <use xlink:href="#DejaVuSans-20" transform="translate(1006.445312 0.015625)"/>
      <use xlink:href="#DejaVuSans-28" transform="translate(1038.232422 0.015625)"/>
      <use xlink:href="#DejaVuSans-Oblique-70" transform="translate(1077.246094 0.015625)"/>
      <use xlink:href="#DejaVuSans-3d" transform="translate(1160.205078 0.015625)"/>
      <use xlink:href="#DejaVuSans-33" transform="translate(1263.476562 0.015625)"/>
      <use xlink:href="#DejaVuSans-29" transform="translate(1327.099609 0.015625)"/>
     </g>
    </g>
    <g id="line2d_91">
     <path d="M 57.806875 576.761875 
L 77.806875 576.761875 
L 97.806875 576.761875 
" style="fill: none; stroke-dasharray: 6,12; stroke-dashoffset: 0; stroke: #9467bd; stroke-width: 1.5"/>
    </g>
    <g id="text_49">
     <!-- FRonUniformRoots ($p=$3) -->
     <g transform="translate(105.806875 580.261875) scale(0.1 -0.1)">
      <use xlink:href="#DejaVuSans-46" transform="translate(0 0.015625)"/>
      <use xlink:href="#DejaVuSans-52" transform="translate(57.519531 0.015625)"/>
      <use xlink:href="#DejaVuSans-6f" transform="translate(127.001953 0.015625)"/>
      <use xlink:href="#DejaVuSans-6e" transform="translate(188.183594 0.015625)"/>
      <use xlink:href="#DejaVuSans-55" transform="translate(251.5625 0.015625)"/>
      <use xlink:href="#DejaVuSans-6e" transform="translate(324.755859 0.015625)"/>
      <use xlink:href="#DejaVuSans-69" transform="translate(388.134766 0.015625)"/>
      <use xlink:href="#DejaVuSans-66" transform="translate(415.917969 0.015625)"/>
      <use xlink:href="#DejaVuSans-6f" transform="translate(451.123047 0.015625)"/>
      <use xlink:href="#DejaVuSans-72" transform="translate(512.304688 0.015625)"/>
      <use xlink:href="#DejaVuSans-6d" transform="translate(553.417969 0.015625)"/>
      <use xlink:href="#DejaVuSans-52" transform="translate(650.830078 0.015625)"/>
      <use xlink:href="#DejaVuSans-6f" transform="translate(720.3125 0.015625)"/>
      <use xlink:href="#DejaVuSans-6f" transform="translate(781.494141 0.015625)"/>
      <use xlink:href="#DejaVuSans-74" transform="translate(842.675781 0.015625)"/>
      <use xlink:href="#DejaVuSans-73" transform="translate(881.884766 0.015625)"/>
      <use xlink:href="#DejaVuSans-20" transform="translate(933.984375 0.015625)"/>
      <use xlink:href="#DejaVuSans-28" transform="translate(965.771484 0.015625)"/>
      <use xlink:href="#DejaVuSans-Oblique-70" transform="translate(1004.785156 0.015625)"/>
      <use xlink:href="#DejaVuSans-3d" transform="translate(1087.744141 0.015625)"/>
      <use xlink:href="#DejaVuSans-33" transform="translate(1191.015625 0.015625)"/>
      <use xlink:href="#DejaVuSans-29" transform="translate(1254.638672 0.015625)"/>
     </g>
    </g>
    <g id="line2d_92">
     <path d="M 57.806875 591.460312 
L 77.806875 591.460312 
L 97.806875 591.460312 
" style="fill: none; stroke: #8c564b; stroke-width: 1.5; stroke-linecap: square"/>
    </g>
    <g id="text_50">
     <!-- Exact -->
     <g transform="translate(105.806875 594.960312) scale(0.1 -0.1)">
      <use xlink:href="#DejaVuSans-45"/>
      <use xlink:href="#DejaVuSans-78" x="63.183594"/>
      <use xlink:href="#DejaVuSans-61" x="122.363281"/>
      <use xlink:href="#DejaVuSans-63" x="183.642578"/>
      <use xlink:href="#DejaVuSans-74" x="238.623047"/>
     </g>
    </g>
   </g>
  </g>
 </g>
 <defs>
  <clipPath id="p7a6d7e9a25">
   <rect x="48.806875" y="10.8" width="372.393125" height="276.64"/>
  </clipPath>
  <clipPath id="pdcb5c6cd8f">
   <rect x="48.806875" y="329.4" width="372.393125" height="276.64"/>
  </clipPath>
 </defs>
</svg>
